<svg width="308" height="206" viewBox="0 0 308 206" fill="none" xmlns="http://www.w3.org/2000/svg">
<path d="M40.1724 158.986C39.9101 159.041 39.5053 159.018 38.958 158.915C38.4343 158.784 38.0697 158.635 37.8642 158.469C37.6502 158.224 37.4437 157.925 37.2449 157.57C37.0725 157.213 36.9309 156.893 36.8201 156.61C36.733 156.298 36.6866 156.115 36.6809 156.062L36.8043 152.71C36.9113 152.457 36.9506 152.198 36.9222 151.933C36.9203 151.665 36.9596 151.406 37.0401 151.156C36.9994 151.026 37.0107 150.757 37.0741 150.347C37.1612 149.909 37.2573 149.429 37.3624 148.909C37.4912 148.358 37.6124 147.863 37.726 147.421C37.8368 146.953 37.8983 146.652 37.9106 146.516C37.9741 146.107 38.0773 145.694 38.2202 145.276C38.3632 144.859 38.4929 144.443 38.6094 144.028C38.7476 143.316 38.8527 142.795 38.9247 142.465C38.9966 142.136 39.0624 141.874 39.1221 141.68C39.2083 141.483 39.3048 141.258 39.4118 141.005C39.516 140.726 39.659 140.308 39.8408 139.752L41.6161 134.171C41.3367 134.067 41.0711 133.841 40.8192 133.492C40.5645 133.117 40.42 132.771 40.3859 132.453C40.3424 132.296 40.3575 132.187 40.4314 132.126C40.5024 132.038 40.6264 131.944 40.8035 131.845C41.0952 131.813 41.3987 131.767 41.714 131.707C42.0294 131.646 42.349 131.625 42.6728 131.644C42.9143 131.645 43.072 131.615 43.1458 131.553C43.2168 131.465 43.3745 131.435 43.6188 131.462C43.866 131.516 44.1075 131.517 44.3432 131.465C44.6056 131.41 44.8238 131.32 44.9981 131.194C45.0776 131.185 45.3148 131.147 45.7097 131.077C46.1046 131.008 46.5392 130.935 47.0137 130.857C47.5146 130.777 47.9492 130.703 48.3176 130.637C48.7125 130.568 48.9497 130.529 49.0293 130.52C49.0027 130.523 49.1737 130.492 49.542 130.425C49.9369 130.356 50.3981 130.28 50.9255 130.197C51.4501 130.087 51.9231 129.996 52.3445 129.924C52.7631 129.825 52.9975 129.76 53.0477 129.728C53.5903 129.535 53.9804 129.547 54.2181 129.763C54.4558 129.979 54.639 130.187 54.7678 130.388C54.8351 130.515 54.917 130.654 55.0136 130.804C55.1073 130.928 55.1732 131.042 55.211 131.145C55.2726 131.219 55.265 131.274 55.1883 131.309C55.0756 131.508 54.9042 131.661 54.6741 131.766C54.4705 131.868 54.2172 131.882 53.9142 131.807C53.8053 131.792 53.4208 131.833 52.7608 131.931C52.1008 132.028 51.2978 132.168 50.3518 132.35C49.4323 132.529 48.4877 132.724 47.518 132.935C46.572 133.117 45.7453 133.286 45.0379 133.442C44.7898 133.63 44.5872 133.866 44.43 134.151C44.27 134.41 44.126 134.693 43.9982 135.002C43.9357 135.17 43.7899 135.561 43.5608 136.175C43.3581 136.787 43.1347 137.455 42.8904 138.178C42.6461 138.902 42.4449 139.527 42.2868 140.053C42.1258 140.553 42.0439 140.79 42.0411 140.764C41.8602 141.078 41.9317 141.245 42.2556 141.263C42.6059 141.28 42.9004 141.275 43.1391 141.249C43.3512 141.227 43.569 141.257 43.7925 141.34C44.0396 141.394 44.2679 141.396 44.4771 141.347C44.6069 141.306 44.863 141.319 45.2456 141.386C45.6519 141.422 46.0889 141.496 46.5567 141.607C47.0482 141.689 47.488 141.789 47.8763 141.908C48.2882 141.998 48.5794 142.088 48.7499 142.177C49.3995 142.482 49.9696 142.797 50.4601 143.12C50.9506 143.443 51.3569 143.855 51.6789 144.357C52.0009 144.859 52.2845 145.378 52.5298 145.915C52.7751 146.452 52.9039 147.028 52.9162 147.644C52.9304 147.776 52.9205 148.059 52.8864 148.492C52.876 148.895 52.8405 149.315 52.7799 149.75C52.7194 150.186 52.6341 150.517 52.5243 150.743C52.263 151.308 51.9723 151.848 51.6522 152.365C51.3558 152.853 51.0803 153.285 50.8256 153.661C50.4582 154.237 50.0027 154.741 49.4592 155.175C48.9393 155.579 48.3901 155.96 47.8115 156.317C47.3598 156.607 47.0085 156.832 46.7575 156.993C46.5303 157.125 46.3134 157.229 46.107 157.304C45.9006 157.38 45.616 157.478 45.2533 157.597C45.2798 157.594 45.1515 157.648 44.8684 157.759C44.5824 157.843 44.2978 157.941 44.0147 158.052C43.7316 158.162 43.59 158.218 43.59 158.218C43.2652 158.44 42.92 158.598 42.5545 158.691C42.1862 158.757 41.8164 158.81 41.4452 158.85C41.233 158.873 41.0195 158.882 40.8045 158.878C40.5924 158.901 40.3817 158.937 40.1724 158.986ZM39.5886 156.917C39.9834 156.848 40.393 156.79 40.8172 156.745C41.2415 156.699 41.66 156.601 42.0729 156.449C43.3589 155.936 44.5492 155.406 45.6438 154.86C46.765 154.311 47.746 153.454 48.5869 152.292C49.1673 151.452 49.5811 150.683 49.8283 149.986C50.1019 149.286 50.2861 148.502 50.3807 147.634C50.4413 147.198 50.4001 146.814 50.2571 146.48C50.1113 146.121 49.9716 145.693 49.838 145.198C49.5397 144.667 49.2746 144.32 49.0425 144.157C48.8077 143.967 48.5814 143.857 48.3636 143.827C48.1458 143.797 47.9251 143.74 47.7016 143.657C47.3257 143.402 46.8138 143.256 46.1661 143.218C45.5184 143.18 45.0738 143.161 44.8323 143.16C44.9943 143.169 44.9545 143.173 44.713 143.172C44.4952 143.142 44.1713 143.123 43.7414 143.116C43.3087 143.082 42.8773 143.061 42.4474 143.053C42.0175 143.046 41.6832 143.055 41.4446 143.08C41.3044 143.524 41.1553 144.01 40.9972 144.536C40.8656 145.06 40.7207 145.585 40.5626 146.112C40.4281 146.609 40.3069 147.104 40.199 147.599C40.0163 148.396 39.8482 149.205 39.6948 150.026C39.5386 150.821 39.3971 151.627 39.2702 152.445C39.2125 152.907 39.1647 153.462 39.1268 154.11C39.089 154.758 39.0999 155.36 39.1596 155.917C39.2429 156.444 39.3859 156.778 39.5886 156.917ZM57.9138 156.441C57.5691 156.478 57.2836 156.442 57.0573 156.332C56.8575 156.219 56.5989 156.059 56.2817 155.852C55.7211 155.376 55.3091 154.91 55.0459 154.456C54.7797 153.975 54.6623 153.504 54.6935 153.045C54.7503 152.824 54.7555 152.623 54.7091 152.44C54.6864 152.228 54.675 152.122 54.675 152.122C54.5282 152.003 54.4799 151.928 54.5301 151.896C54.5775 151.837 54.622 151.752 54.6636 151.64C54.8227 151.623 54.8601 151.472 54.7758 151.186C54.7001 150.979 54.7564 150.504 54.9448 149.76C55.1332 149.015 55.3922 148.304 55.7217 147.625C55.8524 147.342 56.0541 146.972 56.3268 146.514C56.5967 146.029 56.8945 145.555 57.2202 145.091C57.5696 144.597 57.8892 144.201 58.179 143.902C58.7821 143.274 59.3214 142.8 59.7968 142.481C60.2721 142.162 60.7944 141.905 61.3635 141.71C61.9326 141.515 62.3232 141.406 62.5354 141.383C62.774 141.357 63.1149 141.535 63.5581 141.917C64.1963 142.117 64.6679 142.388 64.9729 142.731C65.3043 143.071 65.5482 143.594 65.7045 144.302C65.8693 145.089 65.901 146.011 65.7997 147.067C65.7221 148.095 65.234 149.421 64.3354 151.046C63.7749 152.072 63.2417 152.853 62.7361 153.39C62.2276 153.9 61.613 154.422 60.8924 154.955C60.3754 155.386 59.9014 155.719 59.4706 155.953C59.0369 156.16 58.518 156.323 57.9138 156.441ZM61.2801 151.816C61.8397 151.032 62.271 150.302 62.574 149.626C62.9035 148.947 63.1881 148.098 63.4276 147.08C63.5024 146.777 63.5303 146.412 63.5114 145.985C63.4896 145.532 63.4323 145.122 63.3394 144.756C63.2703 144.362 63.1533 144.146 62.9886 144.11C62.6505 143.959 62.2604 143.947 61.8181 144.075C61.3731 144.176 60.9095 144.481 60.4276 144.988C59.6795 145.766 59.0559 146.704 58.5569 147.803C58.0551 148.876 57.5821 150.094 57.1381 151.456C56.8426 152.453 56.8322 153.232 57.1069 153.792C57.4052 154.323 57.917 154.47 58.6424 154.231C59.3914 153.963 60.2707 153.158 61.2801 151.816ZM65.5575 156.064C65.4458 156.023 65.2886 155.932 65.0859 155.793C64.9098 155.651 64.7469 155.508 64.5972 155.363C64.5092 155.292 64.4358 155.233 64.3771 155.185C64.3155 155.111 64.2568 155.064 64.2009 155.043C64.181 154.858 64.2066 154.721 64.2776 154.633C64.3752 154.542 64.4713 154.438 64.566 154.32C64.655 154.15 64.8188 154.052 65.0574 154.026C65.2961 154.001 65.4746 153.914 65.5929 153.768C66.0332 153.372 66.4854 152.961 66.9494 152.536C67.4134 152.111 67.7907 151.628 68.0814 151.087C68.3958 150.517 68.7059 149.907 69.0118 149.258C69.3176 148.608 69.6116 147.973 69.8938 147.353C69.9799 147.156 70.1168 146.806 70.3042 146.303C70.4917 145.8 70.6674 145.312 70.8312 144.839C71.0187 144.336 71.1157 143.99 71.1223 143.802C70.8752 143.748 70.6427 143.706 70.4249 143.675C70.2308 143.616 70.038 143.569 69.8468 143.536C69.5683 143.19 69.413 142.992 69.3808 142.942C69.3458 142.866 69.3055 142.615 69.2601 142.191C69.226 141.873 69.377 141.655 69.7132 141.539C70.4622 141.271 71.1255 141.079 71.7032 140.964C72.3073 140.845 72.8925 140.675 73.4588 140.454C73.8187 140.308 74.2652 140.22 74.7983 140.189C75.3314 140.159 75.8745 140.221 76.4275 140.377C76.6775 140.457 76.8906 140.568 77.0668 140.711C77.2429 140.853 77.4086 141.023 77.5639 141.22C77.9598 141.661 78.1762 142.053 78.2131 142.398C78.2766 142.74 78.2988 143.073 78.2799 143.397C78.261 143.72 78.3391 144.074 78.5143 144.458C78.4055 145.193 78.2881 145.85 78.1621 146.426C78.0334 146.977 77.915 147.499 77.8071 147.993C77.6963 148.461 77.5959 148.901 77.506 149.313C77.416 149.725 77.3526 150.134 77.3157 150.54C77.2551 150.976 77.168 151.414 77.0544 151.855C76.9408 152.297 76.8683 152.747 76.8371 153.206C76.821 153.557 76.6889 153.825 76.4408 154.013C76.2193 154.198 75.9697 154.372 75.6923 154.536C75.5891 154.574 75.4006 154.567 75.127 154.516C74.877 154.435 74.6359 154.314 74.4039 154.151C74.2931 153.868 74.2382 153.605 74.2391 153.364C74.2401 153.122 74.2675 152.878 74.3215 152.631C74.3783 152.41 74.473 151.917 74.6055 151.152C74.7381 150.387 74.8872 149.526 75.0529 148.57C75.2185 147.613 75.3781 146.725 75.5315 145.904C75.6848 145.083 75.7842 144.509 75.8297 144.182C75.9168 143.744 75.9225 143.421 75.8467 143.215C75.7974 143.006 75.7364 142.811 75.6634 142.631C75.0839 142.479 74.6923 142.453 74.4887 142.556C74.3088 142.629 74.0759 142.707 73.7899 142.792C73.6687 142.912 73.5754 143.043 73.5101 143.184C73.4447 143.325 73.4059 143.463 73.3936 143.598C73.1844 144.399 72.9978 145.035 72.834 145.509C72.6967 145.98 72.5552 146.41 72.4094 146.802C72.2607 147.166 72.0898 147.573 71.8966 148.023C71.73 148.47 71.5141 149.083 71.249 149.863C71.088 150.363 70.8697 150.829 70.5942 151.26C70.3452 151.689 70.1255 152.142 69.9352 152.618L69.5574 153.222C69.5839 153.219 69.4892 153.337 69.2733 153.574C69.0574 153.812 68.8415 154.05 68.6256 154.287C68.4362 154.522 68.3415 154.64 68.3415 154.64L67.2109 155.726C67.0897 155.847 66.87 155.924 66.5518 155.958C66.2336 155.992 65.9022 156.028 65.5575 156.064ZM83.9826 154.371C82.816 154.496 81.8145 154.161 80.9783 153.366C80.1393 152.544 79.662 151.469 79.5464 150.14C79.4971 149.18 79.5733 148.139 79.775 147.018C80.0003 145.867 80.3374 144.758 80.7862 143.691C81.2322 142.597 81.7454 141.63 82.3259 140.79C82.9063 139.951 83.5374 139.333 84.2192 138.938C84.4702 138.777 84.7372 138.641 85.0203 138.53C85.33 138.417 85.6439 138.343 85.9621 138.309C86.2538 138.278 86.5644 138.298 86.8939 138.37C87.2206 138.415 87.4957 138.48 87.7192 138.563C88.1898 138.7 88.5587 138.889 88.8257 139.128C89.0928 139.368 89.349 139.756 89.5942 140.293C89.7278 140.788 89.8059 141.142 89.8286 141.354C89.8514 141.566 89.8192 141.892 89.7321 142.33C89.5162 143.319 89.1933 144.185 88.7635 144.928C88.3336 145.671 87.72 146.327 86.9226 146.895C86.7247 147.051 86.4842 147.184 86.2011 147.295C85.9416 147.376 85.666 147.432 85.3744 147.464C84.8441 147.52 84.3171 147.483 83.7934 147.351C83.2934 147.19 82.8763 146.927 82.542 146.56L82.2295 146.272L82.1443 146.603C81.9558 147.347 81.8148 148.033 81.721 148.66C81.6538 149.284 81.6472 149.848 81.7012 150.352C81.7353 150.67 81.7945 150.972 81.8788 151.258C81.9896 151.541 82.1227 151.781 82.278 151.979C82.4011 152.127 82.5862 152.228 82.8334 152.282C83.1042 152.306 83.3855 152.303 83.6771 152.272C83.8627 152.252 84.0483 152.232 84.2339 152.212C84.4432 152.163 84.6364 152.089 84.8135 151.989C85.2472 151.782 85.5866 151.571 85.8319 151.357C86.1037 151.14 86.374 150.91 86.6429 150.667L86.7935 150.57L86.7537 150.574C87.0549 150.381 87.3162 150.192 87.5378 150.008C87.7859 149.82 87.9099 149.726 87.9099 149.726C88.016 149.715 88.115 149.637 88.2068 149.493C88.4076 149.365 88.677 149.376 89.015 149.527C89.3796 149.676 89.5776 149.896 89.6088 150.188C89.5965 150.323 89.4999 150.548 89.3191 150.863C89.1354 151.15 88.9237 151.428 88.6842 151.695C88.4711 151.959 88.2865 152.113 88.1302 152.157C88.1065 152.186 88.0194 152.249 87.8689 152.346C87.7154 152.416 87.6151 152.48 87.5677 152.539L87.6075 152.535C87.403 152.878 87.1814 153.063 86.9428 153.089L86.6246 153.123C86.5384 153.32 86.2165 153.569 85.6587 153.87C85.0981 154.144 84.5394 154.312 83.9826 154.371ZM84.8345 145.43C85.3118 145.378 85.7086 145.202 86.0248 144.9C86.3648 144.568 86.6489 144.216 86.8771 143.843C87.3306 143.07 87.5617 142.348 87.5702 141.677C87.6023 140.976 87.4716 140.507 87.1781 140.27C87.0105 140.208 86.8604 140.184 86.7278 140.198C86.6189 140.183 86.3978 140.247 86.0644 140.39C85.8315 140.468 85.5214 140.703 85.1341 141.093C84.7468 141.483 84.3638 141.913 83.985 142.383C83.6327 142.85 83.3662 143.24 83.1853 143.555L82.7578 144.445C82.9614 144.343 83.156 144.282 83.3416 144.262C83.5509 144.213 83.6716 144.213 83.7038 144.263C83.7294 144.502 83.7933 144.723 83.8956 144.927C84.0216 145.101 84.1565 145.234 84.3004 145.326C84.4709 145.415 84.6489 145.449 84.8345 145.43ZM94.574 152.15C93.4944 151.836 92.7558 151.326 92.358 150.617C91.984 149.88 91.8045 148.705 91.8196 147.095C91.7845 146.267 91.7528 145.721 91.7243 145.455C91.6959 145.19 91.5217 144.941 91.2016 144.707C91.1107 144.609 90.9492 144.479 90.7172 144.316C90.5117 144.151 90.4151 144 90.4274 143.865C90.381 143.682 90.3729 143.482 90.4032 143.264C90.4307 143.019 90.4975 142.892 90.6035 142.88C90.7096 142.869 90.8128 142.831 90.9132 142.767C91.0401 142.699 91.1594 142.687 91.2711 142.728C91.3772 142.717 91.4979 142.717 91.6333 142.73C91.7687 142.742 91.8421 142.801 91.8535 142.907C91.9795 143.081 92.1546 143.089 92.3791 142.931C92.6006 142.747 92.8156 142.375 93.0239 141.816C93.2436 141.364 93.5428 140.902 93.9216 140.433C94.3269 139.96 94.7231 139.529 95.1104 139.139C95.5214 138.719 95.8642 138.414 96.1388 138.224C96.2657 138.157 96.4574 138.069 96.7141 137.961C96.9707 137.853 97.242 137.757 97.528 137.673C97.8405 137.586 98.1042 137.544 98.3192 137.548C98.7993 137.523 99.2112 137.613 99.5549 137.817C99.9252 138.019 100.273 138.263 100.599 138.55C100.969 138.752 101.215 139.047 101.338 139.437C101.486 139.823 101.558 140.244 101.554 140.701C101.549 141.157 101.474 141.581 101.328 141.972C101.277 142.246 101.085 142.588 100.754 142.999C100.423 143.41 100.037 143.814 99.5964 144.209C99.1561 144.605 98.7456 144.904 98.3649 145.106C98.0287 145.222 97.5851 145.337 97.0339 145.45C96.5093 145.559 96.0084 145.64 95.5311 145.691C95.0775 145.713 94.7669 145.693 94.5993 145.63C94.4023 145.544 94.2721 145.705 94.2087 146.114C94.1453 146.524 94.1268 147.102 94.1534 147.85C94.1629 148.439 94.2083 148.863 94.2898 149.123C94.3712 149.382 94.4442 149.562 94.5086 149.663C94.7141 149.828 94.9915 150.04 95.341 150.298C95.7141 150.526 96.1956 150.514 96.7856 150.263C97.2751 150.077 97.7287 149.68 98.1463 149.072C98.5904 148.461 99.0061 147.96 99.3934 147.57C99.4795 147.373 99.6405 147.249 99.8763 147.197C100.136 147.115 100.416 147.099 100.716 147.147C101.027 147.301 101.171 147.514 101.146 147.785C101.145 148.026 101.052 148.412 100.868 148.941C100.808 149.135 100.648 149.394 100.388 149.716C100.151 150.01 99.876 150.321 99.5625 150.65C99.2728 150.949 99.0038 151.192 98.7557 151.38C98.0058 151.889 97.2875 152.194 96.601 152.295C95.9116 152.369 95.2359 152.32 94.574 152.15ZM96.0552 143.825C96.6243 143.63 97.0784 143.487 97.4174 143.397C97.7564 143.307 98.0722 143.126 98.3648 142.853C98.6546 142.554 98.9997 142.021 99.4002 141.254C99.475 140.95 99.4703 140.656 99.386 140.37C99.3282 140.081 99.2406 139.889 99.1232 139.795C98.8562 139.555 98.556 139.507 98.2226 139.65C97.913 139.764 97.6237 139.942 97.3548 140.185C97.1777 140.285 96.9206 140.514 96.5835 140.872C96.2701 141.2 95.9623 141.582 95.6603 142.016C95.3553 142.425 95.1139 142.799 94.9359 143.14C94.7579 143.481 94.7247 143.672 94.8365 143.714C94.7948 143.826 94.9477 143.876 95.2953 143.866C95.6693 143.853 95.9226 143.839 96.0552 143.825Z" fill="#072239"/>
<path d="M116.937 144.441C116.32 144.089 115.996 143.77 115.966 143.484C115.818 143.306 115.665 143.226 115.505 143.243C115.413 143.285 115.308 143.2 115.188 142.988C115.101 142.772 115.01 142.524 114.916 142.244C114.85 141.93 114.826 141.707 114.844 141.576C114.944 141.308 115.12 141.144 115.371 141.085C115.618 140.994 115.861 141.001 116.097 141.104C116.362 141.172 116.524 141.332 116.583 141.583C116.674 141.831 116.934 142.012 117.365 142.127C117.828 142.238 118.407 142.24 119.104 142.133C119.991 142.006 120.89 141.685 121.8 141.169C122.742 140.649 123.593 140.027 124.352 139.302C125.143 138.574 125.757 137.848 126.194 137.125C126.369 136.656 126.513 136.045 126.626 135.293C126.738 134.541 126.795 133.875 126.798 133.295C126.8 132.716 126.721 132.434 126.562 132.451C126.562 132.451 126.519 132.343 126.431 132.128C126.375 131.908 126.286 131.676 126.163 131.432C125.953 130.972 125.536 130.534 124.912 130.118C124.285 129.67 123.689 129.364 123.124 129.199C122.895 129.16 122.476 129.156 121.868 129.189C121.288 129.187 120.763 129.243 120.293 129.358C119.787 129.444 119.326 129.494 118.909 129.506C118.524 129.515 118.331 129.52 118.331 129.52C118.169 129.505 117.916 129.403 117.574 129.215C117.264 129.023 116.968 128.813 116.686 128.586C116.404 128.359 116.255 128.165 116.238 128.006C116.278 127.777 116.399 127.41 116.603 126.905C116.803 126.369 117.045 125.78 117.33 125.138C117.644 124.46 117.979 123.829 118.334 123.244C118.686 122.627 119.033 122.107 119.374 121.684C120.216 120.532 121.214 119.636 122.369 118.998C123.552 118.324 124.799 117.949 126.11 117.873C127.036 117.806 127.697 117.815 128.092 117.901C128.516 117.953 128.946 118.212 129.383 118.68C129.685 119.099 129.839 119.484 129.845 119.838C129.851 120.191 129.749 120.443 129.54 120.595C129.331 120.746 129.025 120.746 128.623 120.596C128.147 120.358 127.514 120.313 126.726 120.462C125.969 120.607 125.174 120.853 124.343 121.2C123.702 121.526 123.03 122.016 122.328 122.671C121.654 123.29 121.256 123.784 121.135 124.151C121.018 124.26 120.933 124.365 120.879 124.468C120.858 124.566 120.781 124.607 120.651 124.589C120.651 124.589 120.61 124.657 120.528 124.795C120.443 124.901 120.407 125.017 120.421 125.144C120.282 125.352 120.186 125.507 120.133 125.61C120.108 125.677 120.025 125.653 119.884 125.54C119.884 125.54 119.889 125.588 119.899 125.683C119.909 125.778 119.905 125.892 119.887 126.022C119.879 126.248 119.916 126.438 119.996 126.59C120.105 126.707 120.466 126.765 121.077 126.764C121.886 126.806 122.504 126.868 122.931 126.951C123.355 127.002 123.991 127.224 124.837 127.616C125.783 128.029 126.572 128.637 127.205 129.438C127.834 130.207 128.301 131.106 128.604 132.136C128.94 133.162 129.086 134.225 129.043 135.323C129.022 136.034 128.985 136.585 128.93 136.977C128.876 137.369 128.661 137.923 128.288 138.639C127.665 139.735 126.871 140.738 125.906 141.646C124.938 142.522 123.905 143.244 122.808 143.812C121.707 144.349 120.633 144.689 119.586 144.833C118.571 144.974 117.688 144.844 116.937 144.441ZM142.4 141.857C142.178 141.881 141.817 141.823 141.32 141.683C140.85 141.508 140.346 141.305 139.806 141.073C139.263 140.81 138.817 140.552 138.468 140.299C137.696 139.706 137.021 138.958 136.441 138.055C135.862 137.151 135.418 136.169 135.111 135.107C134.801 134.014 134.671 132.95 134.721 131.915C134.853 129.841 135.402 127.755 136.367 125.656C137.33 123.525 138.505 121.726 139.892 120.257C140.641 119.437 141.329 118.8 141.956 118.347C142.58 117.861 143.357 117.456 144.288 117.131C144.628 116.998 145.004 116.91 145.418 116.865C145.828 116.789 146.145 116.739 146.367 116.715C147.004 116.647 147.654 116.706 148.317 116.892C148.981 117.079 149.556 117.339 150.042 117.673C150.525 117.975 150.784 118.285 150.818 118.604C150.842 118.826 150.845 119.003 150.827 119.134C150.805 119.233 150.66 119.232 150.392 119.132L149.915 119.183L150.54 120.516C150.695 120.757 150.844 121.095 150.987 121.53C151.127 121.934 151.215 122.31 151.253 122.66C151.284 122.947 151.285 123.413 151.258 124.06C151.227 124.675 151.17 125.34 151.086 126.058C151.002 126.775 150.913 127.444 150.818 128.065C150.724 128.687 150.629 129.148 150.532 129.448C150.457 129.649 150.414 129.847 150.403 130.041C150.42 130.2 150.435 130.343 150.449 130.471C150.345 130.707 150.184 131.159 149.966 131.826C149.78 132.489 149.637 132.955 149.537 133.223C149.423 133.364 149.324 133.488 149.239 133.593C149.185 133.696 149.229 133.804 149.37 133.917C149.377 133.981 149.319 134.196 149.198 134.563C149.073 134.898 148.93 135.219 148.77 135.526C148.641 135.83 148.53 135.986 148.434 135.997C148.434 135.997 148.388 136.018 148.296 136.06C148.232 136.067 148.206 136.118 148.216 136.213C148.23 136.34 148.059 136.697 147.703 137.282C147.344 137.835 146.909 138.429 146.397 139.063C146.113 139.416 145.705 139.813 145.174 140.256C144.67 140.664 144.162 141.025 143.648 141.337C143.134 141.65 142.718 141.823 142.4 141.857ZM141.935 138.866C142.285 138.828 142.614 138.745 142.922 138.615C143.226 138.454 143.478 138.25 143.677 138.003C144.209 137.56 144.81 136.868 145.482 135.927C146.15 134.954 146.615 134.035 146.876 133.171C147.175 132.656 147.392 132.134 147.529 131.604C147.694 131.039 147.93 130.097 148.24 128.776C148.457 128.399 148.586 127.951 148.626 127.431C148.667 126.912 148.669 126.477 148.631 126.127C148.594 125.777 148.543 125.3 148.478 124.696C148.445 124.088 148.47 123.57 148.553 123.143C148.464 122.316 148.39 121.776 148.331 121.525C148.269 121.242 148.113 120.986 147.863 120.755C147.725 120.673 147.54 120.596 147.307 120.525C147.106 120.45 146.894 120.424 146.671 120.448C146.448 120.472 146.048 120.644 145.471 120.963C144.89 121.25 144.481 121.487 144.244 121.674C144.035 121.825 143.782 121.868 143.485 121.803C143.221 121.735 143.08 121.621 143.063 121.462C143.015 121.017 142.725 121.016 142.193 121.459C141.658 121.87 141.087 122.543 140.479 123.477C139.967 124.111 139.537 124.753 139.188 125.402C138.868 126.015 138.715 126.386 138.728 126.513C138.742 126.64 138.711 126.805 138.636 127.006C138.561 127.207 138.49 127.44 138.421 127.705C138.286 127.944 138.134 128.331 137.966 128.864C137.798 129.397 137.63 129.93 137.462 130.463C137.322 130.96 137.234 131.34 137.198 131.601C137.211 131.728 137.249 132.078 137.31 132.651C137.368 133.192 137.423 133.701 137.474 134.178C137.532 134.719 137.597 135.179 137.67 135.557C137.775 135.932 137.89 136.258 138.016 136.534C138.139 136.778 138.297 137.051 138.49 137.352C138.641 137.561 138.861 137.811 139.15 138.102C139.467 138.358 139.68 138.544 139.789 138.661C140.173 138.942 140.48 139.102 140.709 139.142C140.935 139.15 141.344 139.058 141.935 138.866Z" fill="#072239"/>
<path d="M11.2779 200.952C10.6828 201.252 9.99294 201.408 9.20827 201.418C8.45468 201.449 7.77092 201.346 7.15699 201.108C6.51683 200.874 6.11843 200.555 5.96179 200.15C5.90632 199.998 5.92707 199.817 6.02403 199.609C6.09478 199.406 6.2146 199.249 6.3835 199.136C6.53105 199.054 6.685 199.08 6.84533 199.213C7.07944 199.305 7.48884 199.391 8.07353 199.472C8.66309 199.58 9.28651 199.505 9.94379 199.247C10.5224 199.004 11.0465 198.54 11.516 197.856C12.0118 197.167 12.3969 196.539 12.6713 195.973C12.8225 195.619 13.0717 194.99 13.4187 194.085C13.7657 193.179 14.1112 192.193 14.4552 191.125C14.8205 190.027 15.1087 189.024 15.3197 188.117C15.3594 187.892 15.4048 187.626 15.4561 187.318C15.5073 187.01 15.5945 186.75 15.7177 186.537C15.8165 186.193 15.894 185.881 15.9501 185.599C16.0276 185.286 16.0697 185.075 16.0764 184.965C16.0782 184.829 16.1475 184.545 16.2841 184.113C16.4207 183.681 16.5442 183.251 16.6546 182.823C16.7126 182.406 16.802 181.792 16.9228 180.983C17.0436 180.174 17.1912 179.509 17.3656 178.989C17.5681 178.327 17.727 177.796 17.8423 177.395C17.9789 176.962 18.1578 176.685 18.3792 176.563C18.581 176.335 18.7212 176.214 18.7999 176.2C18.9048 176.18 19.116 176.222 19.4337 176.326C19.8068 176.582 20.0619 176.86 20.199 177.16C20.3313 177.434 20.3602 177.808 20.2858 178.283C20.2327 178.727 20.0778 179.352 19.821 180.16C19.7283 180.828 19.5996 181.448 19.4349 182.022C19.2915 182.564 19.169 182.925 19.0671 183.107C18.9945 183.446 18.903 183.829 18.7926 184.257C18.7036 184.653 18.6228 185.021 18.5502 185.36C18.2732 186.496 18.0253 187.424 17.8064 188.142C17.5874 188.861 17.398 189.52 17.2382 190.12C17.0784 190.719 16.9226 191.412 16.7707 192.2C16.348 193.282 15.9288 194.31 15.5128 195.282C15.128 196.276 14.6917 197.211 14.2038 198.089C13.9855 198.373 13.709 198.709 13.3742 199.097C13.0395 199.485 12.6867 199.849 12.316 200.189C11.9715 200.524 11.6255 200.779 11.2779 200.952ZM14.832 190.526C14.429 190.547 13.9919 190.384 13.5206 190.038C13.0756 189.687 12.7043 189.294 12.4068 188.862C12.1094 188.429 11.9673 188.102 11.9808 187.883C11.9564 187.752 11.9369 187.647 11.9223 187.568C11.9076 187.49 11.9003 187.45 11.9003 187.45C11.743 187.48 11.5623 187.31 11.3581 186.941C11.1801 186.567 11.0064 186.071 10.8369 185.451C10.6675 184.832 10.5039 184.17 10.346 183.467C10.2144 182.76 10.1163 182.086 10.0518 181.447C10.0738 180.982 10.036 180.487 9.93852 179.963C9.83616 179.412 9.76883 178.977 9.73655 178.658C9.63234 178.243 9.62048 177.961 9.70097 177.81C9.77659 177.633 9.85953 177.496 9.94977 177.398C10.6254 176.946 11.1469 177.053 11.5145 177.717C11.9034 178.35 12.2078 179.622 12.4277 181.534C12.5703 182.593 12.7653 183.641 13.0127 184.68C13.2601 185.719 13.5749 186.61 13.9571 187.353C14.3656 188.09 14.8194 188.562 15.3187 188.768C15.5218 188.838 15.6403 188.966 15.6745 189.149C15.7086 189.333 15.6927 189.539 15.6268 189.768C15.5561 189.971 15.4411 190.155 15.282 190.321C15.1442 190.455 14.9942 190.523 14.832 190.526ZM27.0781 189.47C26.3421 189.742 25.6401 189.832 24.9719 189.739C24.2988 189.62 23.7168 189.335 23.2261 188.884C22.7567 188.402 22.444 187.741 22.288 186.902C22.0631 186.13 21.9867 185.209 22.0587 184.138C22.1259 183.04 22.3111 181.921 22.6142 180.779C22.9436 179.633 23.3391 178.624 23.8007 177.752C24.208 177.025 24.6251 176.351 25.052 175.729C25.4788 175.107 25.8849 174.665 26.2703 174.404C26.6081 174.178 26.9319 174.023 27.2416 173.938C27.5727 173.822 27.8431 173.745 28.0528 173.706C28.4918 173.733 28.974 173.847 29.4996 174.047C30.0465 174.217 30.3491 174.459 30.4076 174.774C30.4076 174.774 30.4412 174.808 30.5082 174.877C30.5966 174.915 30.6408 174.934 30.6408 174.934C30.7981 174.904 30.9609 175.05 31.1291 175.372C31.3236 175.688 31.4754 176.067 31.5845 176.508C31.6887 176.922 31.6889 177.288 31.5853 177.606C31.573 178.124 31.4699 178.59 31.276 179.006C31.0821 179.422 30.8802 179.649 30.6705 179.688C30.5656 179.708 30.4632 179.74 30.3632 179.786C30.2846 179.801 30.2574 179.874 30.2818 180.005C30.3062 180.136 30.2373 180.203 30.0751 180.206C29.9391 180.204 29.7803 180.152 29.5986 180.05C29.4121 179.922 29.26 179.761 29.1423 179.566C29.1179 179.435 29.1289 179.202 29.1753 178.868C29.2217 178.534 29.251 178.108 29.2632 177.59C29.2841 176.827 29.1832 176.357 28.9607 176.182C28.7333 175.98 28.3769 176.033 27.8916 176.34C27.3044 176.829 26.7702 177.457 26.2891 178.225C25.8342 178.987 25.4552 179.939 25.152 181.081C24.844 182.196 24.6372 183.563 24.5315 185.183C24.4863 185.815 24.5183 186.352 24.6274 186.793C24.7627 187.229 24.8721 187.452 24.9556 187.464C25.3422 187.501 25.8452 187.434 26.4646 187.265C27.0792 187.069 27.5161 186.866 27.7752 186.655C28.1557 186.367 28.5764 186.004 29.0374 185.566C29.4935 185.101 29.8914 184.688 30.231 184.327C30.3475 184.224 30.4804 184.063 30.6298 183.846C30.7792 183.628 30.949 183.447 31.1393 183.304C31.2905 182.95 31.4399 182.732 31.5875 182.651C31.735 182.569 31.9661 182.499 32.2807 182.44C32.5002 182.454 32.7115 182.496 32.9145 182.567C33.1175 182.637 33.255 182.72 33.3269 182.815C33.4251 182.906 33.4028 183.005 33.2601 183.113C33.1552 183.132 33.097 183.184 33.0854 183.267C33.0952 183.32 33.1 183.346 33.1 183.346C33.172 183.441 33.0954 183.686 32.8704 184.08C32.6667 184.444 32.3917 184.861 32.0454 185.332C31.699 185.803 31.356 186.22 31.0164 186.581C30.6981 186.912 30.4603 187.091 30.303 187.121C30.0408 187.169 29.9243 187.273 29.9536 187.43C29.9633 187.482 29.7911 187.65 29.4368 187.933C29.1088 188.211 28.7152 188.501 28.2561 188.803C27.8231 189.101 27.4305 189.323 27.0781 189.47ZM45.4682 184.993C45.1128 184.977 44.7845 184.889 44.4833 184.728C44.1773 184.541 43.9401 184.287 43.7719 183.965C43.6036 183.644 43.5403 183.303 43.5818 182.943C43.63 182.473 43.6675 182.018 43.6944 181.579C43.7426 181.109 43.7539 180.66 43.7284 180.23C43.7107 179.99 43.7391 179.632 43.8136 179.157C43.9093 178.651 43.9978 178.105 44.0789 177.521C44.1601 176.936 44.1568 176.408 44.0691 175.936C44.0106 175.621 43.92 175.353 43.7975 175.132C43.6701 174.884 43.4763 174.717 43.2159 174.63C42.6593 174.408 42.1115 174.306 41.5725 174.325C41.0598 174.339 40.5184 174.345 39.9483 174.342C39.891 174.326 39.7075 174.36 39.3977 174.445C39.1142 174.524 38.8652 174.571 38.6505 174.584C38.6255 174.887 38.6005 175.19 38.5755 175.493C38.5504 175.796 38.5385 176.096 38.5397 176.394C38.4933 176.728 38.4436 177.117 38.3905 177.561C38.3374 178.005 38.295 178.433 38.2632 178.846C38.2278 179.531 38.2 180.038 38.1799 180.367C38.1597 180.696 38.1264 181.028 38.0801 181.362C38.0599 181.691 38.0059 182.203 37.918 182.898C37.8881 183.174 37.8689 183.436 37.8603 183.681C37.8518 183.927 37.8039 184.18 37.7167 184.44C37.6837 184.555 37.6746 184.652 37.6892 184.73C37.6989 184.783 37.716 184.874 37.7404 185.006C37.7745 185.189 37.7538 185.369 37.6781 185.546C37.6239 185.692 37.5409 185.829 37.4293 185.958C37.3391 186.057 37.2202 186.147 37.0726 186.228C36.9251 186.31 36.7931 186.402 36.6766 186.505C36.3754 186.344 36.1554 186.182 36.0164 186.018C35.8774 185.854 35.6786 185.66 35.4202 185.437C35.4556 184.752 35.4828 184.096 35.5018 183.469C35.5469 182.837 35.583 182.301 35.6098 181.862C35.6581 181.392 35.7117 181.097 35.7709 180.978C35.8727 180.796 35.8953 180.48 35.8387 180.029C35.8082 179.574 35.8458 179.119 35.9513 178.666C35.8715 178.382 35.862 178.113 35.923 177.857C35.9792 177.576 36.0353 177.294 36.0914 177.012C36.1872 176.506 36.2019 176.002 36.1355 175.499C36.0904 174.965 36.074 174.439 36.0862 173.921C36.3356 173.658 36.5366 173.498 36.689 173.443C36.8365 173.361 37.0783 173.276 37.4142 173.186C37.4258 173.102 37.4374 173.019 37.449 172.935C37.4557 172.826 37.4649 172.729 37.4765 172.645C37.8423 172.279 38.3661 172.033 39.0477 171.906C39.7294 171.779 40.3101 171.766 40.7899 171.867C40.8735 171.878 40.9415 171.879 40.9939 171.869C41.0463 171.86 41.1274 171.858 41.2372 171.865C41.5042 171.842 41.8359 171.876 42.2322 171.965C42.6236 172.028 43.0092 172.132 43.389 172.278C43.7688 172.425 44.0676 172.573 44.2852 172.722C44.9284 173.118 45.4003 173.613 45.7008 174.208C46.0275 174.799 46.2518 175.421 46.3737 176.077C46.5181 176.999 46.5289 177.933 46.4063 178.878C46.2788 179.797 46.1875 180.546 46.1326 181.126C46.1173 181.481 46.1185 181.78 46.1362 182.02C46.18 182.256 46.2739 182.469 46.4178 182.66C46.5617 182.85 46.7497 183.059 46.982 183.287C46.9801 183.423 46.9118 183.639 46.7771 183.936C46.6636 184.201 46.502 184.353 46.2923 184.392C46.1088 184.426 45.9637 184.521 45.857 184.676C45.7716 184.801 45.642 184.906 45.4682 184.993ZM54.6106 184.92C53.4571 185.135 52.4328 184.878 51.5378 184.149C50.638 183.394 50.0793 182.359 49.8618 181.043C49.7388 180.089 49.7346 179.046 49.8494 177.912C49.9854 176.748 50.2361 175.616 50.6015 174.518C50.9619 173.393 51.3992 172.389 51.9132 171.507C52.4273 170.625 53.009 169.961 53.6584 169.515C53.8962 169.335 54.152 169.179 54.4257 169.046C54.7257 168.909 55.033 168.811 55.3476 168.753C55.636 168.699 55.9473 168.696 56.2814 168.742C56.6106 168.762 56.8898 168.805 57.1191 168.871C57.5989 168.972 57.9812 169.131 58.2659 169.35C58.5506 169.568 58.8359 169.935 59.1218 170.452C59.293 170.935 59.3982 171.282 59.4372 171.492C59.4762 171.701 59.4691 172.028 59.416 172.472C59.2769 173.474 59.0216 174.363 58.6503 175.137C58.2789 175.911 57.7176 176.612 56.9664 177.24C56.781 177.41 56.5514 177.561 56.2777 177.694C56.0253 177.795 55.7548 177.872 55.4665 177.926C54.9421 178.023 54.4138 178.027 53.8816 177.936C53.3706 177.814 52.9344 177.583 52.5729 177.243L52.2391 176.98L52.1797 177.316C52.0491 178.073 51.9612 178.767 51.9161 179.4C51.8971 180.027 51.9339 180.59 52.0265 181.088C52.085 181.403 52.1673 181.699 52.2734 181.978C52.4056 182.252 52.5568 182.481 52.7269 182.667C52.861 182.804 53.0534 182.891 53.3039 182.925C53.5759 182.929 53.856 182.904 54.1444 182.85C54.3279 182.816 54.5115 182.782 54.695 182.748C54.8998 182.683 55.0867 182.594 55.2556 182.481C55.6721 182.241 55.9943 182.005 56.2224 181.772C56.4766 181.535 56.7285 181.285 56.9779 181.022L57.1205 180.914L57.0812 180.921C57.3666 180.705 57.6126 180.497 57.8193 180.296C58.0522 180.09 58.1687 179.987 58.1687 179.987C58.2736 179.967 58.3662 179.882 58.4467 179.731C58.637 179.588 58.9065 179.578 59.2552 179.703C59.6302 179.823 59.8444 180.028 59.8981 180.316C59.8962 180.452 59.8172 180.684 59.6611 181.011C59.5001 181.312 59.3105 181.605 59.0922 181.89C58.9001 182.17 58.7278 182.337 58.5754 182.393C58.5541 182.424 58.4721 182.493 58.3294 182.601C58.1818 182.683 58.0867 182.755 58.044 182.817L58.0833 182.81C57.9059 183.168 57.6992 183.369 57.4632 183.413L57.1486 183.472C57.0779 183.675 56.776 183.948 56.2431 184.291C55.7054 184.608 55.1612 184.818 54.6106 184.92ZM54.7716 175.939C55.2435 175.852 55.6255 175.645 55.9176 175.319C56.231 174.963 56.4871 174.59 56.6859 174.2C57.0787 173.395 57.2534 172.657 57.2102 171.987C57.1883 171.286 57.0219 170.829 56.711 170.615C56.5391 170.566 56.3876 170.553 56.2565 170.578C56.1467 170.571 55.9312 170.652 55.6099 170.82C55.3837 170.916 55.0925 171.174 54.7364 171.593C54.3803 172.011 54.0315 172.47 53.69 172.967C53.3748 173.46 53.1391 173.87 52.983 174.197L52.6253 175.118C52.8204 175 53.0097 174.924 53.1932 174.89C53.3981 174.825 53.5185 174.816 53.5545 174.864C53.5983 175.1 53.6791 175.315 53.7968 175.51C53.9358 175.674 54.0805 175.797 54.2311 175.877C54.4079 175.953 54.5881 175.974 54.7716 175.939ZM67.714 180.734C67.4208 180.762 67.2159 180.827 67.0994 180.93C67.0043 181.002 66.7479 181.009 66.3303 180.951C65.3231 180.786 64.3833 180.472 63.5109 180.01C62.6598 179.518 62.0819 178.744 61.7772 177.688C61.598 177.016 61.5081 176.314 61.5076 175.582C61.5022 174.824 61.4886 174.094 61.4667 173.393C61.5704 173.075 61.6439 172.668 61.6872 172.172C61.7519 171.644 61.8297 171.115 61.9206 170.582C62.0066 170.024 62.1335 169.539 62.3012 169.128C62.4902 168.686 62.7479 168.394 63.0741 168.252C63.3344 168.339 63.5841 168.442 63.823 168.56C64.0834 168.648 64.3224 168.766 64.54 168.915C64.7528 169.039 64.8787 169.205 64.9177 169.415C64.9518 169.598 64.949 169.802 64.9094 170.027C64.8484 170.282 64.7743 170.54 64.687 170.8C64.6212 171.029 64.5446 171.274 64.4574 171.535C64.3257 171.993 64.2134 172.556 64.1207 173.225C64.0542 173.888 64.0163 174.56 64.0071 175.239C64.0192 175.888 64.0847 176.459 64.2035 176.952C64.2931 177.288 64.4949 177.644 64.8088 178.02C65.149 178.39 65.5288 178.537 65.9483 178.459C66.4202 178.371 66.8683 178.301 67.2927 178.249C67.7384 178.167 68.1515 177.981 68.532 177.694C68.4765 177.541 68.421 177.389 68.3656 177.236C68.3052 177.058 68.2604 176.89 68.2312 176.732C68.2165 176.654 68.2285 176.353 68.2669 175.831C68.3005 175.282 68.3433 174.636 68.3952 173.895C68.4471 173.153 68.499 172.411 68.5509 171.669C68.6241 170.895 68.6907 170.232 68.7505 169.679C68.8054 169.099 68.8493 168.751 68.8823 168.637C68.9987 168.534 69.1283 168.428 69.271 168.32C69.4137 168.213 69.5588 168.118 69.7063 168.036C69.8685 168.033 70.0307 168.03 70.1929 168.027C70.3813 168.019 70.559 168.027 70.726 168.05C70.8242 168.14 70.9092 168.233 70.9812 168.328C71.0745 168.392 71.1702 168.469 71.2683 168.559C71.5219 168.756 71.6682 168.96 71.7072 169.169C71.7414 169.353 71.7172 169.588 71.6349 169.875C71.3318 171.016 71.167 172.172 71.1407 173.343C71.1406 174.51 71.0569 175.664 70.8897 176.808C71.0385 177.024 71.1973 177.076 71.3662 176.963C71.7089 176.764 72.0424 176.661 72.3667 176.655C72.7124 176.618 73.0328 176.518 73.3279 176.354C73.5279 176.263 73.6852 176.234 73.7999 176.266C73.9145 176.299 74.0325 176.277 74.1538 176.201C74.3965 176.047 74.6358 175.948 74.8717 175.904C75.1077 175.861 75.3568 175.814 75.6189 175.766C75.6945 175.589 75.7647 175.237 75.8294 174.709C75.9154 174.151 75.9917 173.54 76.0582 172.877C76.1199 172.187 76.1651 171.555 76.1938 170.98C76.2487 170.4 76.2805 169.987 76.289 169.742C76.2957 169.632 76.2854 169.43 76.258 169.137C76.2568 168.839 76.2449 168.556 76.2224 168.289C76.195 167.996 76.192 167.834 76.2133 167.803C76.3316 167.564 76.3286 167.402 76.2042 167.316C76.1012 167.2 76.0171 167.039 75.9519 166.834C75.975 166.667 75.9982 166.5 76.0214 166.333C76.0659 166.135 76.1571 165.969 76.2949 165.835C77.2686 165.382 78.0841 165.61 78.7412 166.519C78.7833 166.891 78.8515 167.258 78.946 167.62C79.0404 167.982 79.0276 168.351 78.9074 168.726C78.9873 169.009 79.004 169.318 78.9576 169.652C78.9326 169.955 78.8945 170.261 78.8432 170.569C78.8133 170.845 78.8276 171.141 78.8861 171.456C78.8098 172.067 78.7448 172.811 78.6911 173.689C78.6373 174.567 78.5412 175.29 78.4028 175.858C78.3387 175.951 78.3369 176.087 78.3972 176.266C78.4576 176.445 78.4728 176.672 78.4429 176.949C78.4081 177.2 78.2102 177.521 77.8493 177.914C77.6657 177.948 77.338 178.009 76.8661 178.097C76.4155 178.153 75.9567 178.239 75.4897 178.353C75.0178 178.44 74.6736 178.559 74.4571 178.707C74.0931 178.938 73.6441 179.076 73.11 179.121C72.6021 179.161 72.1375 179.288 71.7162 179.502C71.6424 179.543 71.5662 179.57 71.4875 179.585C71.4302 179.569 71.3623 179.568 71.2836 179.582C70.6544 179.699 70.0553 179.906 69.4865 180.201C68.9127 180.471 68.3219 180.648 67.714 180.734ZM91.757 163.448C92.085 163.17 92.453 163.034 92.8609 163.039C93.2639 163.018 93.5971 163.133 93.8604 163.382C94.1451 163.601 94.2478 163.934 94.1685 164.383C94.1917 164.216 94.1457 164.333 94.0304 164.734C93.9364 165.104 93.8096 165.589 93.6498 166.188C93.5162 166.782 93.3908 167.348 93.2737 167.885C93.1779 168.391 93.1111 168.689 93.0733 168.777L93.0953 168.895C93.5148 168.817 93.7882 168.902 93.9156 169.149C94.0643 169.366 94.1548 169.634 94.1871 169.953C93.8823 170.064 93.6765 170.197 93.5698 170.353C93.4582 170.482 93.3 170.579 93.0951 170.645C93.0164 170.659 92.932 170.716 92.8417 170.814C92.7515 170.912 92.703 171.016 92.6963 171.126C92.6847 171.209 92.6645 171.538 92.6358 172.113C92.6285 172.657 92.6046 173.258 92.5643 173.917C92.5453 174.544 92.5127 175.025 92.4663 175.359C92.4529 175.578 92.3797 175.768 92.2467 175.929C92.1089 176.063 92.0163 176.148 91.9687 176.184C91.4054 176.072 91.027 176.006 90.8338 175.988C90.6618 175.939 90.485 175.863 90.3034 175.761C90.2479 175.609 90.2138 175.425 90.201 175.211C90.1833 174.97 90.1977 174.682 90.2441 174.348C90.302 173.93 90.3387 173.544 90.3539 173.188C90.3906 172.802 90.4004 172.271 90.3834 171.596C90.2688 171.563 90.0459 171.605 89.7148 171.721C89.4051 171.805 89.0716 171.908 88.7143 172.029C88.357 172.149 88.0521 172.26 87.7997 172.361C87.5735 172.458 87.4711 172.49 87.4924 172.459C87.3711 172.536 87.1293 172.622 86.7672 172.716C86.4263 172.78 86.07 172.832 85.6981 172.874C85.3475 172.885 85.0887 172.879 84.9216 172.856L84.7076 173.018C84.7301 173.285 84.6853 173.7 84.573 174.263C84.4559 174.8 84.4388 175.292 84.5217 175.738C84.5588 176.083 84.5697 176.434 84.5545 176.789C84.5392 177.145 84.5526 177.508 84.5946 177.88C84.6756 178.462 84.5841 178.845 84.3201 179.03C84.0823 179.21 83.6589 179.194 83.0498 178.981C82.9041 178.927 82.756 178.86 82.6054 178.779C82.481 178.694 82.3411 178.598 82.1856 178.491L82.2518 175.346C82.2884 174.959 82.3168 174.601 82.337 174.272C82.3523 173.917 82.3831 173.572 82.4295 173.238C82.5319 172.622 82.6189 171.996 82.6903 171.359C82.7879 170.717 82.9191 170.109 83.0837 169.536C83.0837 169.536 83.0987 169.398 83.1286 169.121C83.1798 168.813 83.2393 168.476 83.307 168.111C83.3699 167.72 83.4211 167.412 83.4608 167.187C83.5004 166.963 83.5062 166.921 83.4782 167.062C83.5276 166.89 83.5895 166.567 83.6639 166.092C83.7335 165.591 83.7948 165.118 83.8479 164.674C83.9223 164.199 83.9571 163.949 83.9522 163.923C83.9754 163.756 84.0346 163.636 84.1297 163.564C84.2199 163.466 84.3437 163.402 84.501 163.373C84.9418 163.264 85.3284 163.301 85.6606 163.483C85.988 163.639 86.1941 163.872 86.2788 164.182C86.2818 164.344 86.2955 164.49 86.3199 164.622C86.3443 164.753 86.3376 164.862 86.2997 164.951L85.1834 170.325L85.2419 170.64C85.5334 170.749 85.9184 170.704 86.397 170.507C86.897 170.278 87.2781 170.139 87.5402 170.091C87.6664 170.04 87.9631 169.958 88.4301 169.844C88.9234 169.725 89.3928 169.624 89.8385 169.541C90.3104 169.453 90.5619 169.42 90.593 169.442C90.7352 168.601 90.8609 167.819 90.9701 167.093C91.0744 166.341 91.2681 165.559 91.5511 164.747C91.5675 164.69 91.5883 164.51 91.6133 164.207C91.6646 163.899 91.7124 163.646 91.757 163.448ZM104.487 174.995C103.639 175.397 103.032 175.632 102.665 175.7C102.298 175.769 101.871 175.658 101.383 175.369C101.227 175.262 101.124 175.146 101.074 175.02C101.018 174.867 100.936 174.788 100.826 174.781C100.766 174.602 100.752 174.456 100.785 174.341C100.839 174.195 100.988 174.046 101.23 173.892C101.667 174.055 102.178 174.028 102.761 173.811C103.345 173.594 103.893 173.261 104.407 172.813C104.941 172.334 105.333 171.814 105.581 171.252C105.988 170.526 106.285 169.86 106.471 169.256C106.652 168.626 106.714 168.085 106.658 167.634C106.609 167.372 106.536 167.196 106.437 167.106C106.361 166.985 106.193 166.812 105.934 166.589C105.492 166.834 105.093 167.098 104.739 167.381C104.411 167.659 104.151 167.938 103.959 168.218C103.294 169.019 102.778 169.671 102.41 170.174C102.069 170.671 101.78 171.159 101.543 171.637C101.333 172.11 101.071 172.742 100.757 173.533C100.596 173.834 100.435 174.067 100.276 174.232C100.143 174.393 99.9852 174.49 99.8016 174.524C99.9778 175.034 99.8528 175.382 99.4266 175.57C98.8254 175.546 98.3742 175.454 98.0731 175.293C97.767 175.106 97.6055 174.675 97.5885 174C97.6251 173.613 97.6496 173.161 97.6618 172.643C97.6692 172.1 97.7067 171.645 97.7744 171.28C98.0917 169.485 98.3644 167.888 98.5926 166.49C98.8469 165.086 99.1065 164.075 99.3712 163.456L99.8195 161.054C100.27 160.997 100.628 161.025 100.893 161.139C101.154 161.226 101.49 161.503 101.902 161.968C101.926 162.1 101.866 162.504 101.721 163.182C101.597 163.829 101.438 164.577 101.243 165.427C101.075 166.272 100.91 167.062 100.748 167.798C100.608 168.502 100.509 168.995 100.453 169.276C100.402 169.584 100.471 169.517 100.66 169.075C100.875 168.628 101.281 168.038 101.877 167.303C102.154 166.899 102.515 166.506 102.96 166.125C103.399 165.718 103.775 165.404 104.086 165.183C104.424 164.958 104.709 164.81 104.94 164.74C105.171 164.67 105.336 164.612 105.436 164.566C106.092 164.444 106.648 164.517 107.104 164.785C107.556 165.026 107.9 165.342 108.135 165.732C108.396 166.118 108.552 166.442 108.6 166.704C108.757 167.109 108.885 167.505 108.984 167.894C109.105 168.251 109.152 168.649 109.125 169.088C109.085 169.312 108.995 169.628 108.853 170.034C108.712 170.44 108.533 170.866 108.318 171.313C108.124 171.729 107.866 172.089 107.543 172.393C107.35 172.673 107.082 172.98 106.738 173.316C106.393 173.651 106.02 173.978 105.618 174.297C105.238 174.585 104.861 174.817 104.487 174.995ZM112.784 174.104C112.302 174.139 111.882 174.068 111.523 173.89C111.186 173.682 110.906 173.341 110.682 172.867C110.599 172.421 110.576 172.005 110.613 171.619C110.671 171.201 110.705 170.801 110.715 170.42C110.734 169.792 110.806 169.155 110.929 168.508C111.053 167.861 111.151 167.219 111.222 166.582C111.311 166.186 111.377 165.808 111.418 165.447C111.46 165.087 111.501 164.727 111.543 164.366C111.596 163.923 111.651 163.492 111.709 163.074C111.767 162.657 111.825 162.239 111.883 161.821C111.925 161.461 111.937 161.092 111.922 160.716C111.932 160.334 111.929 159.955 111.914 159.578C112.143 159.21 112.434 159.02 112.784 159.009C113.161 158.993 113.663 159.212 114.29 159.665C114.479 159.955 114.598 160.232 114.647 160.494C114.691 160.73 114.672 160.991 114.589 161.277C114.528 161.533 114.45 161.914 114.354 162.42C114.285 162.921 114.202 163.424 114.106 163.93C114.032 164.405 113.977 164.768 113.942 165.019C113.944 165.317 113.887 165.816 113.773 166.515C113.685 167.209 113.589 167.932 113.485 168.684C113.375 169.41 113.307 169.992 113.281 170.431C113.196 170.853 113.149 171.256 113.139 171.637C113.128 172.019 113.135 172.492 113.159 173.057C113.255 173.284 113.252 173.488 113.15 173.669C113.07 173.82 112.948 173.965 112.784 174.104ZM128.679 170.904C128.574 170.923 128.428 170.937 128.239 170.945C128.077 170.948 127.934 170.907 127.81 170.822C127.705 170.841 127.514 170.836 127.237 170.806C126.96 170.776 126.707 170.728 126.478 170.662C126.196 170.606 125.803 170.462 125.299 170.231C124.79 169.973 124.276 169.688 123.757 169.378C123.239 169.068 122.79 168.771 122.412 168.489C122.06 168.202 121.87 167.979 121.841 167.822C121.816 167.691 121.739 167.638 121.608 167.662C121.608 167.662 121.561 167.63 121.468 167.566C121.369 167.476 121.311 167.378 121.291 167.273C121.242 167.011 121.087 166.904 120.825 166.953C120.825 166.953 120.636 167.178 120.259 167.628C119.881 168.078 119.479 168.614 119.052 169.236C118.455 170.106 118.004 170.746 117.7 171.155C117.418 171.533 117.172 171.742 116.962 171.781C116.752 171.82 116.502 171.785 116.21 171.676C115.919 171.568 115.649 171.428 115.4 171.257C115.173 171.056 115.04 170.85 115.001 170.64C115.001 170.64 115.207 170.29 115.619 169.589C116.057 168.884 116.585 168.148 117.202 167.383L119.258 164.437L118.548 163.023C118.286 162.638 118.009 162.242 117.717 161.835C117.446 161.397 117.228 161.031 117.065 160.736C116.667 160.349 116.446 160.105 116.4 160.005C116.376 159.874 116.439 159.632 116.59 159.278C116.761 159.029 116.907 158.866 117.028 158.79C117.171 158.682 117.419 158.703 117.773 158.855C117.93 158.825 118.181 159.009 118.526 159.406C118.867 159.777 119.19 160.205 119.498 160.69C119.826 161.145 120.01 161.477 120.049 161.686C120.127 162.106 120.316 162.247 120.616 162.11C120.916 161.973 121.341 161.636 121.893 161.099C122.154 160.753 122.359 160.47 122.508 160.253C122.653 160.009 122.725 159.887 122.725 159.887C122.789 159.794 122.993 159.579 123.338 159.244C123.677 158.882 124.03 158.518 124.396 158.152C124.762 157.786 125.006 157.564 125.127 157.487C125.307 157.291 125.543 157.247 125.835 157.356C126.121 157.438 126.383 157.606 126.62 157.861C126.853 158.089 126.995 158.347 127.049 158.635C127.108 158.95 127.075 159.214 126.952 159.426C126.829 159.639 126.532 159.938 126.061 160.324C125.653 160.753 125.289 161.132 124.971 161.463C124.679 161.788 124.365 162.145 124.031 162.533C123.717 162.889 123.318 163.37 122.834 163.976L121.965 164.992L122.792 165.936C122.931 166.101 123.124 166.336 123.371 166.643C123.644 166.944 123.882 167.131 124.085 167.201C124.281 167.382 124.636 167.614 125.15 167.898C125.664 168.183 126.16 168.443 126.638 168.68C127.138 168.885 127.413 168.983 127.466 168.973C127.571 168.954 127.696 168.971 127.842 169.025C127.988 169.08 128.162 169.142 128.365 169.213C128.614 169.384 128.789 169.595 128.89 169.848C129.017 170.095 129.061 170.331 129.021 170.556C129.003 170.749 128.889 170.865 128.679 170.904ZM147.699 165.984C147.343 165.969 147.015 165.881 146.714 165.72C146.408 165.533 146.171 165.278 146.003 164.957C145.834 164.636 145.771 164.295 145.812 163.935C145.861 163.464 145.898 163.01 145.925 162.571C145.973 162.101 145.985 161.651 145.959 161.222C145.941 160.981 145.97 160.623 146.044 160.148C146.14 159.642 146.228 159.097 146.31 158.512C146.391 157.928 146.387 157.399 146.3 156.927C146.241 156.613 146.151 156.345 146.028 156.123C145.901 155.876 145.707 155.709 145.447 155.621C144.89 155.399 144.342 155.298 143.803 155.317C143.29 155.331 142.749 155.336 142.179 155.334C142.122 155.317 141.938 155.351 141.628 155.436C141.345 155.516 141.096 155.562 140.881 155.575C140.856 155.878 140.831 156.181 140.806 156.484C140.781 156.787 140.769 157.088 140.77 157.386C140.724 157.72 140.674 158.109 140.621 158.553C140.568 158.997 140.526 159.425 140.494 159.838C140.458 160.522 140.431 161.029 140.411 161.359C140.39 161.688 140.357 162.02 140.311 162.354C140.291 162.683 140.237 163.195 140.149 163.889C140.119 164.166 140.1 164.427 140.091 164.673C140.082 164.919 140.035 165.172 139.947 165.432C139.914 165.547 139.905 165.643 139.92 165.722C139.93 165.774 139.947 165.866 139.971 165.997C140.005 166.181 139.984 166.361 139.909 166.538C139.855 166.683 139.772 166.821 139.66 166.95C139.57 167.048 139.451 167.138 139.303 167.22C139.156 167.301 139.024 167.394 138.907 167.497C138.606 167.336 138.386 167.173 138.247 167.009C138.108 166.845 137.909 166.652 137.651 166.429C137.686 165.744 137.713 165.088 137.732 164.46C137.778 163.828 137.814 163.293 137.84 162.854C137.889 162.384 137.942 162.089 138.002 161.969C138.103 161.788 138.126 161.471 138.069 161.021C138.039 160.565 138.076 160.111 138.182 159.657C138.102 159.374 138.093 159.104 138.154 158.849C138.21 158.567 138.266 158.286 138.322 158.004C138.418 157.498 138.433 156.993 138.366 156.49C138.321 155.956 138.305 155.43 138.317 154.913C138.566 154.649 138.767 154.49 138.92 154.434C139.067 154.353 139.309 154.267 139.645 154.178C139.656 154.094 139.668 154.011 139.68 153.927C139.686 153.817 139.696 153.721 139.707 153.637C140.073 153.271 140.597 153.024 141.278 152.897C141.96 152.771 142.541 152.758 143.021 152.858C143.104 152.87 143.172 152.871 143.225 152.861C143.277 152.851 143.358 152.85 143.468 152.856C143.735 152.834 144.067 152.867 144.463 152.956C144.854 153.019 145.24 153.124 145.62 153.27C145.999 153.416 146.298 153.564 146.516 153.714C147.159 154.109 147.631 154.605 147.931 155.2C148.258 155.79 148.482 156.413 148.604 157.068C148.749 157.991 148.76 158.925 148.637 159.87C148.509 160.789 148.418 161.538 148.363 162.118C148.348 162.473 148.349 162.771 148.367 163.012C148.411 163.248 148.505 163.461 148.648 163.651C148.792 163.842 148.98 164.051 149.213 164.279C149.211 164.415 149.142 164.631 149.008 164.927C148.894 165.192 148.733 165.344 148.523 165.383C148.339 165.418 148.194 165.512 148.088 165.668C148.002 165.792 147.873 165.898 147.699 165.984ZM152.944 175.587C152.746 175.543 152.525 175.448 152.281 175.304C152.037 175.159 151.828 174.981 151.653 174.769C151.483 174.584 151.383 174.413 151.354 174.255C151.325 174.098 151.312 173.666 151.317 172.96C151.326 172.281 151.345 171.436 151.375 170.427C151.435 169.439 151.504 168.423 151.581 167.378C151.689 166.354 151.816 165.436 151.963 164.622C151.991 164.481 152.081 164.017 152.233 163.229C152.406 162.41 152.537 161.436 152.626 160.308C152.709 159.587 152.84 158.763 153.02 157.834C153.2 156.906 153.393 155.975 153.599 155.041C153.801 154.082 153.956 153.239 154.065 152.513C154.174 151.788 154.269 151.201 154.348 150.752C154.449 150.272 154.502 149.977 154.509 149.868C154.532 149.701 154.587 149.555 154.672 149.431C154.779 149.275 154.89 149.146 155.007 149.043C155.118 148.914 155.211 148.829 155.285 148.788C155.732 148.569 156.175 148.69 156.614 149.151C156.788 149.363 156.866 149.633 156.846 149.962C156.826 150.291 156.754 150.711 156.632 151.222L156.503 152.06L157.861 151.482C158.097 151.438 158.387 151.398 158.733 151.361C159.1 151.292 159.454 151.227 159.795 151.163C160.136 151.1 160.39 151.08 160.557 151.103C161.191 151.012 161.645 151.05 161.92 151.216C162.222 151.377 162.496 151.61 162.742 151.917C162.898 152.024 163.089 152.178 163.317 152.38C163.539 152.556 163.683 152.746 163.748 152.951C163.936 153.377 164.026 153.862 164.019 154.406C164.033 154.919 163.968 155.446 163.825 155.988C163.708 156.525 163.505 157.037 163.216 157.525C162.948 157.982 162.642 158.378 162.297 158.713C162.055 158.867 161.841 159.029 161.655 159.199C161.465 159.343 161.37 159.414 161.37 159.414C161.368 159.55 161.119 159.814 160.622 160.205C160.12 160.569 159.537 160.935 158.873 161.303C158.209 161.67 157.622 161.942 157.112 162.118C156.934 162.179 156.676 162.254 156.34 162.343C156.005 162.433 155.735 162.442 155.532 162.371C155.234 162.373 155.032 162.383 154.928 162.402C154.823 162.422 154.78 162.484 154.799 162.589C154.783 162.646 154.702 163.231 154.556 164.343C154.41 165.455 154.283 166.74 154.174 168.198C153.959 169.811 153.777 171.093 153.628 172.042C153.484 173.019 153.362 173.747 153.261 174.226C153.186 174.701 153.125 175.025 153.075 175.197C153.031 175.395 152.987 175.525 152.944 175.587ZM155.162 160.162C155.27 160.305 155.529 160.311 155.938 160.18C156.369 160.019 156.864 159.764 157.424 159.416C158.004 159.037 158.567 158.634 159.111 158.207C159.651 157.754 160.085 157.321 160.415 156.907C160.87 156.144 161.23 155.453 161.495 154.834C161.755 154.189 161.736 153.8 161.44 153.665C161.074 153.299 160.5 153.202 159.718 153.375C158.936 153.547 158.027 154.055 156.991 154.899C156.574 155.139 156.272 155.412 156.085 155.718C155.919 155.993 155.792 156.329 155.703 156.725C155.614 157.121 155.5 157.604 155.361 158.172C155.233 158.793 155.156 159.254 155.131 159.557C155.106 159.86 155.116 160.062 155.162 160.162ZM169.331 162.857C168.99 162.921 168.702 162.906 168.468 162.814C168.26 162.717 167.99 162.578 167.658 162.395C167.062 161.963 166.616 161.531 166.318 161.098C166.016 160.639 165.863 160.179 165.858 159.719C165.898 159.495 165.888 159.293 165.827 159.115C165.788 158.905 165.769 158.8 165.769 158.8C165.613 158.693 165.559 158.622 165.607 158.586C165.65 158.524 165.687 158.435 165.72 158.321C165.878 158.291 165.903 158.138 165.797 157.859C165.706 157.659 165.725 157.181 165.856 156.424C165.987 155.667 166.19 154.938 166.466 154.236C166.575 153.944 166.747 153.559 166.984 153.081C167.216 152.577 167.476 152.081 167.765 151.594C168.076 151.075 168.364 150.655 168.629 150.334C169.183 149.662 169.684 149.148 170.133 148.794C170.583 148.439 171.083 148.142 171.636 147.904C172.188 147.665 172.569 147.527 172.779 147.488C173.015 147.444 173.369 147.595 173.84 147.942C174.492 148.092 174.983 148.326 175.313 148.644C175.67 148.957 175.953 149.461 176.163 150.154C176.388 150.926 176.491 151.843 176.471 152.904C176.473 153.935 176.089 155.294 175.318 156.984C174.838 158.049 174.366 158.869 173.904 159.444C173.436 159.992 172.863 160.559 172.186 161.146C171.704 161.616 171.257 161.984 170.845 162.25C170.429 162.49 169.924 162.693 169.331 162.857ZM172.331 157.987C172.828 157.162 173.202 156.401 173.452 155.703C173.728 155.001 173.947 154.133 174.107 153.1C174.159 152.792 174.158 152.426 174.106 152.001C174.05 151.551 173.961 151.147 173.84 150.789C173.741 150.401 173.608 150.195 173.441 150.172C173.092 150.047 172.702 150.065 172.271 150.227C171.835 150.362 171.397 150.701 170.955 151.245C170.269 152.077 169.72 153.061 169.307 154.196C168.889 155.304 168.511 156.554 168.173 157.946C167.955 158.963 168.005 159.74 168.322 160.278C168.66 160.785 169.182 160.891 169.887 160.597C170.613 160.273 171.428 159.402 172.331 157.987ZM183.208 161.009C182.055 161.224 181.03 160.967 180.135 160.238C179.236 159.483 178.677 158.448 178.459 157.132C178.336 156.178 178.332 155.135 178.447 154.001C178.583 152.837 178.834 151.705 179.199 150.607C179.559 149.482 179.997 148.478 180.511 147.596C181.025 146.714 181.607 146.05 182.256 145.604C182.494 145.424 182.749 145.268 183.023 145.136C183.323 144.998 183.631 144.901 183.945 144.842C184.234 144.788 184.545 144.785 184.879 144.831C185.208 144.851 185.487 144.894 185.717 144.96C186.196 145.061 186.579 145.22 186.863 145.439C187.148 145.657 187.433 146.024 187.719 146.541C187.891 147.024 187.996 147.371 188.035 147.581C188.074 147.79 188.067 148.117 188.014 148.561C187.874 149.563 187.619 150.452 187.248 151.226C186.876 152 186.315 152.701 185.564 153.329C185.379 153.499 185.149 153.65 184.875 153.783C184.623 153.884 184.352 153.961 184.064 154.015C183.54 154.112 183.011 154.116 182.479 154.025C181.968 153.903 181.532 153.672 181.17 153.332L180.837 153.069L180.777 153.405C180.647 154.162 180.559 154.857 180.514 155.489C180.495 156.116 180.531 156.679 180.624 157.177C180.683 157.492 180.765 157.788 180.871 158.067C181.003 158.341 181.154 158.57 181.324 158.756C181.459 158.893 181.651 158.98 181.901 159.014C182.173 159.018 182.454 158.993 182.742 158.94C182.925 158.905 183.109 158.871 183.292 158.837C183.497 158.772 183.684 158.683 183.853 158.57C184.27 158.33 184.592 158.094 184.82 157.862C185.074 157.624 185.326 157.374 185.575 157.111L185.718 157.003L185.679 157.01C185.964 156.794 186.21 156.586 186.417 156.385C186.65 156.179 186.766 156.076 186.766 156.076C186.871 156.056 186.964 155.971 187.044 155.821C187.234 155.677 187.504 155.667 187.853 155.792C188.228 155.912 188.442 156.117 188.496 156.405C188.494 156.541 188.415 156.773 188.259 157.1C188.098 157.401 187.908 157.694 187.69 157.979C187.498 158.259 187.325 158.426 187.173 158.482C187.152 158.513 187.07 158.582 186.927 158.69C186.779 158.772 186.684 158.844 186.642 158.906L186.681 158.899C186.503 159.257 186.297 159.458 186.061 159.502L185.746 159.561C185.675 159.764 185.374 160.037 184.841 160.38C184.303 160.697 183.759 160.907 183.208 161.009ZM183.369 152.028C183.841 151.941 184.223 151.734 184.515 151.409C184.829 151.052 185.085 150.679 185.283 150.289C185.676 149.484 185.851 148.746 185.808 148.076C185.786 147.375 185.619 146.918 185.309 146.704C185.137 146.655 184.985 146.642 184.854 146.667C184.744 146.66 184.529 146.741 184.207 146.909C183.981 147.005 183.69 147.263 183.334 147.682C182.978 148.1 182.629 148.559 182.288 149.056C181.972 149.549 181.737 149.959 181.58 150.286L181.223 151.207C181.418 151.089 181.607 151.013 181.791 150.979C181.996 150.914 182.116 150.905 182.152 150.953C182.196 151.189 182.277 151.404 182.394 151.599C182.533 151.763 182.678 151.886 182.829 151.966C183.005 152.042 183.186 152.063 183.369 152.028ZM200.208 156.994C199.765 156.941 199.361 156.812 198.998 156.609C198.629 156.379 198.269 156.12 197.918 155.833C197.757 155.7 197.476 155.427 197.074 155.014C196.671 154.6 196.233 154.139 195.759 153.631C195.31 153.117 194.883 152.641 194.476 152.201C194.064 151.735 193.754 151.386 193.548 151.153C193.49 151.571 193.407 151.925 193.299 152.216C193.211 152.477 193.217 152.869 193.314 153.393C193.12 153.809 193.001 154.265 192.958 154.762C192.936 155.227 192.901 155.694 192.853 156.164C192.828 156.468 192.745 156.754 192.606 157.024C192.492 157.289 192.322 157.538 192.094 157.77C191.774 157.803 191.479 157.749 191.209 157.609C190.965 157.465 190.748 157.315 190.556 157.161C190.34 156.876 190.219 156.586 190.191 156.293C190.164 156 190.178 155.712 190.235 155.431C190.243 155.185 190.302 154.699 190.411 153.974C190.547 153.244 190.685 152.458 190.828 151.618C190.965 150.752 191.093 149.982 191.212 149.309C191.326 148.61 191.382 148.179 191.379 148.017C191.438 147.463 191.609 146.848 191.89 146.172C192.192 145.465 192.354 144.73 192.375 143.966C192.393 143.773 192.493 143.578 192.673 143.382C192.849 143.159 193.068 143.024 193.33 142.975C193.613 142.895 193.876 142.996 194.118 143.276C194.175 143.292 194.261 143.317 194.376 143.35C194.486 143.357 194.574 143.395 194.641 143.464C194.895 143.661 195.059 143.888 195.134 144.145C195.235 144.397 195.234 144.682 195.13 145C194.902 145.666 194.706 146.218 194.543 146.655C194.401 147.061 194.267 147.507 194.14 147.991C194.014 148.476 193.892 149.136 193.776 149.971C194.202 149.784 194.516 149.644 194.716 149.553C194.911 149.435 195.085 149.28 195.24 149.089C195.415 148.866 195.639 148.54 195.912 148.11C196.019 147.954 196.234 147.656 196.559 147.216C196.906 146.745 197.26 146.245 197.623 145.716C198.012 145.183 198.346 144.714 198.623 144.31C198.927 143.901 199.087 143.668 199.103 143.61C199.217 143.345 199.335 143.106 199.458 142.893C199.603 142.65 199.809 142.448 200.078 142.29C200.481 142.269 200.771 142.297 200.948 142.372C201.12 142.422 201.463 142.588 201.977 142.873C202.127 142.953 202.226 143.192 202.273 143.591C202.315 143.962 202.224 144.278 202.001 144.536C201.598 144.991 201.095 145.573 200.495 146.281C199.894 146.989 199.246 147.734 198.55 148.514C197.881 149.29 197.204 150.026 196.52 150.722C196.999 151.257 197.434 151.773 197.825 152.27C198.211 152.741 198.529 153.143 198.781 153.475C198.955 154.121 199.274 154.523 199.738 154.681C200.222 154.808 200.779 154.813 201.408 154.696C201.638 154.762 201.793 154.868 201.875 155.016C201.978 155.132 202.046 155.282 202.081 155.466C202.136 155.618 202.192 155.771 202.247 155.923C201.924 156.227 201.701 156.486 201.577 156.699C201.476 156.88 201.335 157.001 201.157 157.062C200.999 157.091 200.683 157.068 200.208 156.994ZM205.187 155.295C205.089 155.205 204.986 155.088 204.878 154.946C204.797 154.798 204.746 154.672 204.726 154.567C204.717 154.515 204.691 154.451 204.651 154.378C204.636 154.299 204.576 154.269 204.471 154.289C204.378 154.225 204.374 153.914 204.46 153.355C204.568 152.766 204.713 152.088 204.896 151.321C205.105 150.55 205.319 149.805 205.538 149.086C205.779 148.336 205.98 147.743 206.143 147.306C206.259 147.203 206.319 147.083 206.32 146.947C206.344 146.78 206.329 146.702 206.277 146.711C206.277 146.711 206.32 146.581 206.407 146.321C206.516 146.029 206.602 145.837 206.666 145.744C206.808 145.338 206.897 144.941 206.933 144.555C206.965 144.142 206.93 143.81 206.829 143.557C206.7 143.446 206.575 143.428 206.453 143.505C206.332 143.582 206.271 143.62 206.271 143.62C206.171 143.666 206.024 143.748 205.829 143.865C205.655 143.952 205.499 144.062 205.361 144.196C204.836 144.728 204.467 145 204.252 145.013C204.032 144.999 203.733 144.702 203.354 144.122C203.195 143.853 203.117 143.651 203.119 143.515C203.121 143.379 203.199 143.215 203.353 143.024C203.529 142.801 203.703 142.647 203.877 142.56C204.046 142.447 204.176 142.342 204.266 142.244C204.52 142.006 204.732 141.831 204.901 141.719C205.096 141.601 205.243 141.519 205.343 141.474C205.986 141.137 206.555 140.991 207.052 141.034C207.548 141.077 207.965 141.352 208.304 141.859C208.754 142.236 209.032 142.714 209.139 143.29C209.242 143.841 209.178 144.517 208.947 145.32L208.664 145.983C208.581 146.269 208.579 146.405 208.658 146.391C208.763 146.371 208.864 146.257 208.961 146.049C209.02 145.93 209.148 145.743 209.345 145.49C209.542 145.236 209.68 145.102 209.758 145.087C209.758 145.087 209.782 145.069 209.83 145.033C209.903 144.993 209.923 144.88 209.889 144.697C209.953 144.604 210.017 144.51 210.081 144.417C210.172 144.319 210.217 144.27 210.217 144.27C210.322 144.25 210.496 144.096 210.741 143.806C211.007 143.486 211.318 143.116 211.674 142.697C211.923 142.434 212.166 142.28 212.402 142.236C212.971 141.941 213.492 142.047 213.966 142.556C214.467 143.059 214.803 143.77 214.973 144.687L214.542 146.965L215.636 144.971C215.754 144.732 215.878 144.519 216.006 144.333C216.16 144.141 216.293 143.981 216.404 143.852C216.423 143.658 216.482 143.539 216.582 143.493C216.682 143.447 216.732 143.425 216.732 143.425C216.732 143.425 216.758 143.42 216.811 143.41C216.858 143.374 216.875 143.317 216.86 143.238C216.972 143.109 217.099 142.99 217.241 142.882C217.379 142.748 217.465 142.624 217.497 142.509C217.909 142.243 218.311 142.141 218.702 142.204C219.089 142.241 219.464 142.51 219.829 143.012C220.071 143.292 220.227 143.548 220.297 143.779C220.367 144.01 220.446 144.362 220.534 144.833C220.554 145.236 220.56 145.561 220.552 145.807C220.564 146.021 220.58 146.249 220.597 146.49C220.615 146.731 220.637 147.066 220.662 147.495C220.596 147.724 220.572 147.959 220.59 148.2C220.634 148.436 220.675 148.659 220.714 148.868C220.778 149.209 220.835 149.443 220.885 149.569C220.931 149.669 221.045 149.702 221.229 149.668C221.581 149.521 222.045 149.245 222.621 148.839C223.218 148.403 223.647 148.011 223.908 147.664C224.233 147.224 224.54 146.977 224.828 146.924C225.138 146.839 225.361 146.947 225.498 147.247C225.57 147.342 225.522 147.595 225.355 148.006C225.213 148.412 225.03 148.812 224.805 149.206C224.606 149.596 224.441 149.803 224.31 149.827C224.231 149.842 224.154 149.938 224.079 150.114C223.998 150.265 223.9 150.392 223.783 150.495C223.634 150.712 223.482 150.917 223.328 151.108C223.2 151.295 223.031 151.408 222.821 151.447C222.716 151.466 222.592 151.53 222.45 151.638C222.328 151.715 222.176 151.77 221.992 151.804C221.745 151.932 221.331 151.968 220.751 151.913C220.198 151.853 219.789 151.549 219.524 151.002C219.366 150.733 219.189 150.291 218.993 149.677C218.792 149.036 218.684 148.378 218.667 147.703C218.684 147.212 218.669 146.767 218.622 146.369C218.575 145.971 218.576 145.686 218.626 145.514C218.611 145.435 218.577 145.251 218.523 144.963C218.465 144.648 218.396 144.498 218.318 144.513C218.213 144.533 218 144.776 217.68 145.242C217.381 145.677 217.023 146.232 216.606 146.906C216.215 147.576 215.829 148.271 215.448 148.993C215.067 149.715 214.766 150.354 214.544 150.911C214.361 151.243 214.217 151.636 214.112 152.09C214.006 152.543 213.919 152.804 213.85 152.871C213.706 153.114 213.488 153.182 213.196 153.074C212.931 152.96 212.662 152.753 212.389 152.451C212.281 152.308 212.204 152.187 212.158 152.087C212.108 151.96 212.076 151.79 212.063 151.575C212.072 151.33 212.1 150.972 212.148 150.502C212.223 150.027 212.316 149.359 212.427 148.497C212.549 147.552 212.65 146.706 212.728 145.959C212.827 145.181 212.877 144.792 212.877 144.792C212.857 144.688 212.68 144.829 212.346 145.217C212.006 145.578 211.615 146.031 211.174 146.574C210.992 146.906 210.679 147.412 210.235 148.091C209.792 148.77 209.311 149.538 208.792 150.393C208.273 151.249 207.788 152.14 207.336 153.065C206.775 154.281 206.36 155.036 206.089 155.331C205.845 155.62 205.544 155.608 205.187 155.295ZM231.185 151.722C230.849 151.812 230.568 151.837 230.344 151.797C230.115 151.732 229.826 151.636 229.477 151.511C228.817 151.173 228.302 150.807 227.931 150.415C227.581 149.992 227.378 149.555 227.321 149.105C227.329 148.859 227.29 148.649 227.204 148.475C227.144 148.297 227.113 148.207 227.113 148.207C226.932 148.106 226.865 148.037 226.912 148.001C226.955 147.939 226.98 147.853 226.986 147.743C227.186 147.651 227.186 147.502 226.985 147.296C226.867 147.101 226.818 146.621 226.839 145.858C226.881 145.064 226.986 144.312 227.152 143.603C227.23 143.29 227.343 142.876 227.491 142.36C227.665 141.839 227.866 141.314 228.093 140.783C228.315 140.227 228.53 139.78 228.739 139.443C229.193 138.68 229.614 138.1 230.002 137.702C230.41 137.274 230.883 136.901 231.421 136.584C231.907 136.277 232.265 136.088 232.496 136.018C232.727 135.948 233.084 136.044 233.567 136.307C234.23 136.374 234.751 136.548 235.129 136.831C235.528 137.082 235.883 137.531 236.193 138.179C236.544 138.9 236.778 139.792 236.894 140.856C237.032 141.888 236.832 143.295 236.296 145.076C235.988 146.191 235.633 147.057 235.233 147.674C234.858 148.286 234.384 148.944 233.809 149.648C233.389 150.16 232.991 150.573 232.616 150.887C232.24 151.201 231.763 151.479 231.185 151.722ZM233.46 146.458C233.839 145.574 234.111 144.777 234.277 144.068C234.465 143.328 234.556 142.43 234.549 141.373C234.548 141.075 234.495 140.718 234.391 140.304C234.282 139.863 234.141 139.469 233.968 139.121C233.821 138.769 233.666 138.594 233.504 138.597C233.139 138.53 232.759 138.6 232.364 138.809C231.964 138.992 231.564 139.392 231.163 140.009C230.815 140.616 230.518 141.282 230.273 142.005C230.054 142.724 229.873 143.504 229.731 144.344C229.589 145.184 229.47 146.074 229.373 147.014C229.296 148.059 229.451 148.817 229.837 149.288C230.249 149.754 230.784 149.79 231.444 149.396C232.098 148.976 232.77 147.997 233.46 146.458ZM242.203 136.248C242.453 135.55 242.646 134.836 242.781 134.106C242.943 133.37 243.162 132.652 243.438 131.949C243.643 131.45 243.838 130.966 244.023 130.498C244.233 130.025 244.415 129.544 244.568 129.054C244.584 128.997 244.59 128.955 244.585 128.929C244.602 128.871 244.62 128.827 244.642 128.796C244.914 128.366 245.231 127.954 245.592 127.562C245.948 127.143 246.265 126.731 246.543 126.327C246.671 126.141 246.83 125.975 247.02 125.831C247.205 125.661 247.396 125.517 247.591 125.4C247.712 125.323 247.848 125.325 247.999 125.405C248.175 125.481 248.278 125.597 248.308 125.755C248.42 126.358 248.361 127.06 248.13 127.863C247.899 128.665 247.616 129.328 247.279 129.852C247.071 130.189 246.878 130.537 246.7 130.895C246.549 131.249 246.369 131.594 246.161 131.931C245.936 132.326 245.581 132.826 245.097 133.431C244.613 134.036 244.108 134.605 243.583 135.137C243.058 135.668 242.598 136.038 242.203 136.248ZM243.679 138.496C243.706 138.789 243.812 139.068 243.997 139.332C244.182 139.596 244.384 139.883 244.605 140.195C244.826 140.507 245.001 140.867 245.132 141.277C245.288 141.682 245.342 142.187 245.291 142.793C245.25 143.154 245.187 143.545 245.103 143.967C245.019 144.39 244.927 144.773 244.828 145.117C244.796 145.232 244.699 145.44 244.538 145.741C244.398 146.011 244.245 146.283 244.079 146.558C243.94 146.828 243.838 147.01 243.774 147.103C243.688 147.228 243.544 147.254 243.341 147.184C243.138 147.113 243.001 147.03 242.929 146.935C242.744 146.671 242.554 146.232 242.358 145.617C242.158 144.976 242.041 144.496 242.009 144.177C241.991 143.936 241.96 143.548 241.915 143.014C241.87 142.48 241.846 141.915 241.844 141.319C241.841 140.722 241.867 140.202 241.92 139.758C241.994 139.283 242.14 138.972 242.356 138.823C242.594 138.643 242.847 138.474 243.116 138.315C243.38 138.131 243.636 137.975 243.884 137.847C244.305 137.633 244.681 137.319 245.01 136.905C245.367 136.487 245.735 136.133 246.115 135.846C246.345 135.477 246.611 135.157 246.913 134.884C247.236 134.579 247.499 134.246 247.703 133.882C247.826 133.669 247.941 133.485 248.048 133.33C248.181 133.17 248.325 132.994 248.479 132.802C248.638 132.637 248.737 132.442 248.777 132.218C248.843 131.989 248.984 131.8 249.201 131.651C249.219 131.458 249.286 131.309 249.403 131.206C249.514 131.077 249.582 130.929 249.605 130.762C249.694 130.366 249.83 130.001 250.012 129.669C250.216 129.306 250.349 128.928 250.412 128.537C250.486 128.062 250.588 127.514 250.716 126.894C250.871 126.268 250.779 125.77 250.439 125.399C249.995 124.912 249.495 124.557 248.939 124.335C248.404 124.082 248.053 123.876 247.888 123.717C247.826 123.674 247.769 123.658 247.716 123.668C247.659 123.651 247.602 123.635 247.544 123.618C247.502 123.68 247.425 123.708 247.316 123.702C247.232 123.69 247.153 123.705 247.08 123.745C246.672 123.74 246.256 123.912 245.833 124.262C245.431 124.581 245.093 124.874 244.817 125.143C243.731 126.158 242.833 127.383 242.123 128.817C241.408 130.225 240.842 131.7 240.423 133.242C240.031 134.78 239.739 136.272 239.547 137.718C239.373 137.804 239.197 137.878 239.018 137.938C238.866 137.994 238.7 138.052 238.522 138.112C238.515 138.222 238.498 138.347 238.469 138.488C238.441 138.629 238.413 138.769 238.385 138.91C238.555 139.096 238.712 139.283 238.856 139.474C239.026 139.659 239.228 139.798 239.463 139.89C239.336 140.375 239.272 140.983 239.273 141.715C239.3 142.443 239.366 143.163 239.471 143.875C239.577 144.588 239.678 145.207 239.776 145.731C239.8 145.862 239.848 145.975 239.92 146.07C240.018 146.161 240.066 146.274 240.065 146.41C240.075 146.76 240.217 147.154 240.488 147.592C240.785 148.025 241.112 148.398 241.469 148.712C241.852 149.02 242.161 149.153 242.397 149.109C242.712 149.05 243.075 149.105 243.485 149.273C243.923 149.435 244.295 149.393 244.601 149.146C244.791 149.003 244.976 148.9 245.155 148.84C245.355 148.749 245.537 148.633 245.701 148.495C245.955 148.257 246.222 147.869 246.501 147.329C246.806 146.784 247.024 146.35 247.154 146.027C247.36 145.528 247.482 145.017 247.52 144.494C247.554 143.946 247.603 143.408 247.667 142.88C247.735 142.515 247.704 142.128 247.573 141.718C247.469 141.303 247.431 141.026 247.459 140.885C247.394 140.68 247.318 140.491 247.231 140.317C247.14 140.117 247.051 139.93 246.965 139.756C246.837 139.509 246.644 139.273 246.386 139.05C246.149 138.796 245.942 138.563 245.768 138.351C245.496 138.348 245.224 138.344 244.952 138.34C244.701 138.306 244.442 138.299 244.175 138.322C244.102 138.363 244.015 138.406 243.915 138.452C243.836 138.466 243.757 138.481 243.679 138.496Z" fill="#072239"/>
<path d="M132.149 16.5016L132.599 3.08964C132.623 2.36998 133.566 2.1187 133.945 2.73088L137.469 8.42151C137.743 8.86301 138.377 8.88431 138.68 8.46214L143.341 1.95438C143.644 1.5322 144.278 1.55351 144.552 1.99504L148.766 8.80087C149.04 9.24239 149.674 9.2637 149.977 8.84152L153.874 3.4004C154.294 2.81501 155.217 3.12897 155.193 3.84864L154.743 17.2604" stroke="#072239" stroke-width="2" stroke-linecap="round"/>
</svg>
