<svg width="260" height="58" viewBox="0 0 260 58" fill="none" xmlns="http://www.w3.org/2000/svg">
<path d="M4.9089 56.0101C4.9089 56.0101 4.87168 55.9907 4.79725 55.9518C4.72529 55.9361 4.63018 55.9228 4.51192 55.9121C4.41681 55.8989 4.29979 55.8997 4.16085 55.9146C3.78041 55.8617 3.49177 55.6818 3.29493 55.375C3.10056 55.0913 3.02984 54.7593 3.08276 54.3788C3.16546 54.2763 3.21383 54.072 3.22788 53.766C3.24192 53.46 3.23902 53.2144 3.21917 53.0291C3.29194 52.8339 3.33618 52.7004 3.35189 52.6284C3.36512 52.5333 3.39819 52.2955 3.4511 51.9151C3.47838 51.514 3.53584 50.9574 3.62348 50.2453C3.73179 49.5076 3.84672 48.7224 3.96826 47.8895C4.11296 47.0542 4.2498 46.2549 4.37879 45.4915C4.50778 44.7282 4.62602 44.0831 4.73351 43.5563C4.86416 43.027 4.9605 42.7239 5.02252 42.647C5.02252 42.647 5.0188 42.6122 5.01135 42.5428C5.00143 42.4501 4.9915 42.3575 4.98157 42.2649C4.98157 42.2649 4.98198 42.1594 4.9828 41.9485C5.00429 41.712 5.09278 41.4449 5.24825 41.1471C5.31357 40.8825 5.36484 40.5959 5.40204 40.2874C5.43925 39.979 5.45288 39.7784 5.44296 39.6858C5.52317 39.5601 5.62075 39.2685 5.73569 38.8112C5.87131 38.3282 5.99658 37.858 6.11152 37.4007C6.21075 37.0153 6.31908 36.6055 6.4365 36.1713C6.57708 35.7346 6.68912 35.3595 6.77264 35.0461C6.87932 34.7302 6.93266 34.5722 6.93266 34.5722C6.92273 34.4796 6.91776 34.4333 6.91776 34.4333C6.91528 34.4101 6.91404 34.3985 6.91404 34.3985C6.99674 34.296 7.16709 33.8093 7.42509 32.9384C7.70376 32.0419 8.08374 30.8886 8.56502 29.4785C8.63779 29.2833 8.73123 29.0625 8.84536 28.816C8.95948 28.5696 9.01157 28.4 9.00164 28.3074C9.09757 28.1097 9.25098 28.0113 9.46187 28.0121C9.67028 27.9898 9.88614 28.0369 10.1094 28.1535C10.3559 28.2676 10.5507 28.4458 10.6938 28.6882L11.1007 29.2067L10.1183 31.8416C9.81725 32.5297 9.56793 33.1537 9.37029 33.7136C9.19581 34.2711 9.11353 34.5961 9.12346 34.6887C9.12346 34.6887 9.07384 34.8814 8.97461 35.2668C8.87538 35.6522 8.76045 36.1096 8.62979 36.6389C8.49914 37.1682 8.38669 37.6487 8.29242 38.0804C8.11464 38.8256 7.93478 39.4421 7.75286 39.9301C7.59408 40.4155 7.51966 40.7046 7.52959 40.7972C7.52463 40.7509 7.77563 40.6889 8.28259 40.6111C8.78956 40.5333 9.4367 40.4523 10.224 40.3679C11.0114 40.2835 11.8103 40.1979 12.6208 40.111C13.4519 39.9985 14.1801 39.9087 14.8053 39.8417C15.4512 39.7491 15.8875 39.6672 16.1141 39.596L17.9017 39.2288L18.6992 35.5245C18.815 34.8562 18.9738 34.0429 19.1755 33.0843C19.3773 32.1258 19.5592 31.3099 19.7213 30.6367C19.9776 29.5318 20.1963 28.8408 20.3774 28.5637C20.5585 28.2867 20.788 28.1333 21.0659 28.1035C21.1354 28.096 21.2305 28.1093 21.3512 28.1432C21.4927 28.1514 21.6262 28.1957 21.7519 28.2759C21.8983 28.3305 22.0021 28.4247 22.0633 28.5587C22.3685 28.7837 22.5269 29.0595 22.5385 29.3861C22.5732 29.7103 22.4339 30.1586 22.1205 30.7309C21.817 31.3958 21.5776 32.1125 21.4023 32.8808C21.2477 33.6235 21.1025 34.2363 20.9669 34.7193C20.9967 34.9972 20.9868 35.2325 20.9372 35.4252C20.8851 35.5947 20.8177 35.7308 20.735 35.8333C20.6936 35.8846 20.6196 36.0682 20.5129 36.3841C20.4063 36.7 20.3112 37.0147 20.2277 37.3282C20.1441 37.6416 20.1061 37.8331 20.1135 37.9026C20.1309 38.0647 20.1173 38.2652 20.0726 38.5042C20.028 38.7432 19.9643 38.914 19.8816 39.0166C19.8502 39.1605 19.7832 39.519 19.6807 40.0921C19.5781 40.6653 19.4636 41.3451 19.3371 42.1316C19.2081 42.8949 19.0663 43.648 18.9117 44.3906C18.7546 45.1102 18.6082 45.7114 18.4726 46.1944C18.49 46.3565 18.4544 46.5711 18.366 46.8383C18.275 47.0822 18.2394 47.2968 18.2593 47.4821C18.1965 47.7699 18.1179 48.1297 18.0236 48.5614C17.9294 48.9931 17.8884 49.2668 17.9008 49.3826C17.8422 49.9276 17.7731 50.4855 17.6937 51.0561C17.6375 51.6243 17.5842 52.1102 17.5338 52.5138C17.509 52.938 17.5003 53.1849 17.5077 53.2544C17.425 53.3569 17.2873 53.3834 17.0946 53.3338C16.9019 53.2842 16.6733 53.2267 16.4086 53.1614C15.9413 52.9538 15.6453 52.7045 15.5204 52.4134C15.4211 52.1429 15.4703 51.7278 15.6679 51.1678C15.7639 50.9702 15.8544 50.5037 15.9396 49.7685C16.0454 49.0076 16.1525 48.2583 16.2608 47.5206C16.3625 47.1584 16.4634 46.6791 16.5634 46.0828C16.661 45.4634 16.7586 44.8439 16.8561 44.2245C16.9512 43.5819 17.0343 43.046 17.1054 42.6167C17.174 42.1643 17.229 41.9125 17.2704 41.8612C17.2604 41.7686 17.2518 41.6876 17.2443 41.6181C17.2369 41.5486 17.2331 41.5139 17.2331 41.5139C17.1819 41.4725 16.8887 41.4688 16.3536 41.5028C15.816 41.5135 15.1548 41.5727 14.37 41.6802C13.5826 41.7646 12.7631 41.8759 11.9112 42.014C11.0801 42.1265 10.3337 42.2651 9.67207 42.4297C9.41734 42.457 9.12789 42.488 8.80369 42.5228C8.4795 42.5575 8.22477 42.5848 8.03952 42.6047C7.7848 42.632 7.56481 42.6555 7.37956 42.6754C7.21746 42.6928 7.13641 42.7015 7.13641 42.7015C7.1207 42.7734 7.06571 43.0252 6.97145 43.457C6.87718 43.8887 6.76969 44.4155 6.64896 45.0374C6.52576 45.6362 6.39346 46.2594 6.25206 46.9069C6.13134 47.5289 6.02881 48.102 5.94447 48.6263C5.88081 49.125 5.83699 49.4811 5.81301 49.6945C5.76506 50.1212 5.69354 50.6559 5.59846 51.2985C5.52653 51.9386 5.43269 52.5928 5.31693 53.261C5.22681 53.95 5.13834 54.545 5.05152 55.0462C4.98786 55.5449 4.94032 55.8662 4.9089 56.0101ZM24.463 50.4711C24.1619 50.5034 23.9126 50.4716 23.7149 50.3756C23.5404 50.2772 23.3146 50.1375 23.0376 49.9564C22.548 49.5404 22.1882 49.1339 21.9583 48.7369C21.7258 48.3168 21.6233 47.9062 21.6506 47.5051C21.7002 47.3124 21.7047 47.1362 21.6642 46.9766C21.6443 46.7914 21.6344 46.6987 21.6344 46.6987C21.5062 46.5954 21.464 46.5296 21.5079 46.5015C21.5492 46.4502 21.5881 46.3758 21.6245 46.2782C21.7634 46.2633 21.7961 46.131 21.7224 45.8812C21.6563 45.7009 21.7055 45.2858 21.87 44.6357C22.0346 43.9857 22.2607 43.3641 22.5485 42.7712C22.6626 42.5247 22.8388 42.2013 23.077 41.801C23.3126 41.3776 23.5727 40.9632 23.8572 40.558C24.1624 40.1271 24.4415 39.781 24.6945 39.5196C25.2213 38.9713 25.6923 38.5577 26.1075 38.279C26.5226 38.0003 26.9787 37.7757 27.4758 37.6053C27.9728 37.435 28.3139 37.3398 28.4992 37.32C28.7076 37.2976 29.0053 37.4531 29.3924 37.7864C29.9498 37.9609 30.3617 38.1978 30.628 38.4972C30.9175 38.7941 31.1305 39.2514 31.2669 39.8692C31.4109 40.5564 31.4386 41.3616 31.3502 42.2845C31.2824 43.1819 30.8561 44.3401 30.0713 45.7593C29.5817 46.655 29.1161 47.3373 28.6745 47.8063C28.2304 48.2521 27.6937 48.7078 27.0643 49.1734C26.6128 49.5497 26.1989 49.84 25.8226 50.0443C25.4438 50.2255 24.9906 50.3677 24.463 50.4711ZM27.4029 46.4318C27.8917 45.747 28.2683 45.1094 28.533 44.5188C28.8208 43.9259 29.0692 43.1848 29.2785 42.2958C29.3438 42.0311 29.3682 41.7123 29.3516 41.3393C29.3326 40.9432 29.2825 40.5855 29.2015 40.2662C29.1411 39.9214 29.0389 39.7332 28.895 39.7018C28.5998 39.5695 28.259 39.5592 27.8728 39.6708C27.4841 39.7593 27.0793 40.0252 26.6584 40.4685C26.005 41.1476 25.4605 41.9672 25.0247 42.9274C24.5864 43.8644 24.1733 44.9276 23.7855 46.1168C23.5275 46.9877 23.5184 47.6679 23.7583 48.1575C24.0188 48.6215 24.4658 48.7493 25.0993 48.5408C25.7535 48.3067 26.5213 47.6037 27.4029 46.4318ZM46.7715 36.4507C46.8071 36.564 46.8228 36.82 46.8187 37.2186C46.8353 37.5916 46.8287 37.967 46.7989 38.345C46.7898 38.6973 46.7683 38.9338 46.7344 39.0546C46.5939 39.4913 46.5008 39.9346 46.4554 40.3845C46.433 40.8319 46.3425 41.2983 46.1837 41.7838C45.8554 41.5613 45.4472 41.3592 44.9593 41.1772C44.4945 40.9928 44.076 40.8034 43.7038 40.6091C43.4524 40.4487 43.2589 40.282 43.1233 40.1092C43.0083 39.9107 42.9396 39.7073 42.9173 39.4988C42.9032 39.149 42.9714 38.8021 43.1219 38.458C43.2725 38.114 43.473 37.7997 43.7236 37.5152C43.9717 37.2075 44.2272 36.9693 44.4902 36.8006C44.7325 36.6575 45.0981 36.5715 45.5868 36.5425C46.0988 36.5111 46.4937 36.4805 46.7715 36.4507ZM46.8787 48.5956C47.121 48.4525 47.3067 48.3272 47.4357 48.2197C47.5622 48.089 47.6184 47.8488 47.6044 47.4989C47.6052 47.288 47.6292 47.0747 47.6763 46.8588C47.7441 46.6173 47.7437 46.3948 47.675 46.1914C47.7925 45.7572 47.921 45.0993 48.0608 44.2177C48.2237 43.3336 48.3663 42.3697 48.4886 41.326C48.6342 40.2798 48.7408 39.308 48.8086 38.4107C48.8739 37.4902 48.883 36.81 48.8358 36.37C48.7862 35.9068 48.6435 35.5591 48.4078 35.3267C48.1721 35.0943 47.8475 34.9066 47.4339 34.7635C47.1329 34.7958 46.8434 34.8268 46.5656 34.8566C46.2877 34.8864 45.997 34.9058 45.6935 34.9149C45.2948 34.9108 44.8689 34.9799 44.4157 35.1222C43.96 35.2413 43.5378 35.3451 43.1491 35.4336C43.1028 35.4385 43.0577 35.4551 43.0139 35.4832C42.9701 35.5113 42.9275 35.551 42.8861 35.6023C42.538 35.8504 42.2671 36.0551 42.0736 36.2164C41.8801 36.3777 41.7213 36.5352 41.5973 36.6891C41.4112 36.9198 41.2867 37.1791 41.2239 37.4669C41.1842 37.7522 41.0924 38.2071 40.9485 38.8315C40.8832 39.0962 40.863 39.3443 40.8878 39.5758C40.9357 39.8049 41.0081 40.0431 41.1049 40.2904C41.3497 40.8263 41.59 41.2104 41.8257 41.4428C42.0589 41.6521 42.35 41.8551 42.6991 42.0519C42.8918 42.1015 43.0857 42.1627 43.2809 42.2355C43.4736 42.2851 43.6547 42.3359 43.8242 42.388C43.481 42.6825 43.0411 43.0575 42.5043 43.5133C41.9651 43.9458 41.4454 44.3412 40.945 44.6993C40.4447 45.0574 40.049 45.2989 39.7579 45.4238C39.5106 45.5206 39.2902 45.6496 39.0967 45.8109C38.9263 45.9697 38.7725 46.1735 38.6352 46.4225C38.7444 46.7855 38.8974 47.1205 39.0942 47.4273C39.3118 47.7085 39.6302 47.8383 40.0495 47.8168C40.0958 47.8118 40.2918 47.6737 40.6375 47.4024C41.0063 47.1287 41.4178 46.8152 41.8718 46.4621C42.3233 46.0857 42.7323 45.7491 43.0986 45.4522C43.4857 45.1297 43.7334 44.9274 43.8417 44.8456C43.9269 44.7662 44.1307 44.5921 44.4533 44.3233C44.7733 44.0313 45.0752 43.7882 45.3588 43.5938C45.511 43.4838 45.6437 43.411 45.757 43.3754C45.8703 43.3399 45.9423 43.3556 45.9729 43.4226C45.8877 44.1578 45.7819 44.9187 45.6554 45.7052C45.5496 46.4661 45.5608 47.2261 45.689 47.9853C45.8867 48.0812 46.0856 48.1887 46.2857 48.3078C46.4834 48.4037 46.681 48.4997 46.8787 48.5956ZM53.4514 47.7857C53.1041 47.823 52.6616 47.847 52.1241 47.8577C51.6097 47.866 51.1349 47.589 50.6999 47.0266C50.4261 46.6578 50.2041 46.2248 50.0337 45.7278C49.8864 45.2283 49.848 44.8693 49.9183 44.651C50.0513 42.8332 50.1745 41.5786 50.2878 40.8872C50.4011 40.1958 50.4643 39.8025 50.4776 39.7074C50.5139 39.6098 50.583 39.3799 50.6847 39.0177C50.8071 38.6298 50.8749 38.3883 50.8881 38.2932C50.9642 37.9103 50.9543 37.4897 50.8583 37.0316C50.8153 36.8488 50.8095 36.6854 50.8409 36.5415C50.893 36.372 50.9823 36.2219 51.1089 36.0912C51.4703 35.748 51.7407 35.3208 51.9201 34.8097C51.9722 34.6402 52.0698 34.3486 52.2129 33.9351C52.3766 33.496 52.5416 33.0684 52.7078 32.6524C52.8947 32.2107 53.0373 31.9027 53.1357 31.7282C53.4566 31.2253 53.7403 30.703 53.9867 30.1613C54.2538 29.594 54.5978 29.0886 55.0188 28.6453C55.2652 28.1036 55.5976 27.5995 56.0161 27.1331C56.4321 26.6435 56.8518 26.1886 57.2752 25.7684C57.6986 25.3483 58.0344 24.9844 58.2825 24.6767C58.3859 24.5485 58.6873 24.4108 59.1868 24.2636C59.707 24.0907 60.1242 23.9406 60.4385 23.8132C60.57 23.7289 60.8425 23.7582 61.256 23.9013C61.6671 24.0212 61.9648 24.1766 62.1492 24.3677C62.5049 24.8449 62.7232 25.2431 62.8043 25.5623C62.9085 25.879 62.9032 26.2661 62.7882 26.7234C62.6939 27.1552 62.4856 27.8333 62.1631 28.758C61.7992 29.7339 61.2335 30.6846 60.4661 31.61C59.7193 32.5099 58.9382 33.308 58.1228 34.0044C57.725 34.4452 57.3004 34.8537 56.8488 35.2301C56.4204 35.6039 55.9767 35.9442 55.5178 36.2511C55.2341 36.4454 54.9376 36.6295 54.6283 36.8032C54.3422 36.9744 54.0432 37.1352 53.7314 37.2858C53.5743 37.3494 53.4337 37.4582 53.3096 37.612C53.1831 37.7427 53.0859 37.9288 53.0181 38.1703C52.9139 38.5094 52.8627 38.7959 52.8643 39.03C52.8867 39.2384 52.8358 39.4195 52.7118 39.5734C52.6497 39.6503 52.5753 39.9393 52.4885 40.4405C52.4224 40.9161 52.343 41.4867 52.2504 42.1525C52.1785 42.7926 52.126 43.3955 52.0929 43.9612C52.0574 44.5037 52.0611 44.8664 52.1041 45.0491C52.1397 45.1624 52.1765 45.2873 52.2145 45.4238C52.2733 45.5346 52.3874 45.6161 52.5569 45.6682C52.8968 45.5615 53.1623 45.4159 53.3533 45.2315C53.5419 45.0239 53.7474 44.7559 53.9699 44.4276C54.2105 44.0504 54.4255 43.6526 54.6149 43.2341C54.8274 42.8132 54.9924 42.3856 55.1098 41.9514C55.1752 41.6867 55.2161 41.413 55.2326 41.1301C55.2467 40.8241 55.2992 40.5492 55.3901 40.3052C55.333 39.7726 55.2793 39.3802 55.2288 39.1279C55.199 38.85 55.1523 38.6325 55.0886 38.4754C55.0456 38.2926 54.9654 38.0904 54.8479 37.8688C55.0208 37.7331 55.115 37.6293 55.1308 37.5574C55.1696 37.483 55.2726 37.4602 55.4396 37.4891C55.7481 37.5264 56.0384 37.6124 56.3105 37.7471C56.6058 37.8795 56.8944 38.0593 57.1764 38.2867C57.279 38.3694 57.3468 38.4559 57.3799 38.546C57.413 38.6362 57.4126 38.7416 57.3787 38.8624C57.3853 39.1427 57.3803 39.4243 57.3638 39.7072C57.368 39.9644 57.3837 40.2203 57.411 40.4751C57.2811 40.7935 57.2117 41.1288 57.2026 41.4811C57.191 41.8103 57.1447 42.1432 57.0637 42.4798C56.957 42.7957 56.8504 43.1116 56.7437 43.4276C56.637 43.7435 56.5047 44.0388 56.3467 44.3133C56.1235 44.8526 55.8477 45.3389 55.5194 45.7722C55.2142 46.2031 54.8822 46.6018 54.5232 46.9682L53.4514 47.7857ZM53.6755 34.7972C53.9583 34.8138 54.1564 34.8042 54.2697 34.7687C54.4037 34.7075 54.5302 34.5768 54.6493 34.3767C55.6607 33.5421 56.5808 32.7291 57.4094 31.9376C58.2356 31.123 58.915 30.3592 59.4475 29.6463C60.0008 28.9077 60.3427 28.2738 60.4734 27.7445C60.5619 27.4774 60.6632 27.2206 60.7773 26.9741C60.9146 26.7252 60.9902 26.4477 61.0043 26.1417L60.7611 25.184C60.145 25.5545 59.6537 25.8883 59.2874 26.1852C58.9442 26.4796 58.5038 26.9601 57.9663 27.6267C57.7595 27.8831 57.4544 28.314 57.0508 28.9194C56.6679 29.4992 56.2461 30.1534 55.7855 30.882C55.3249 31.6106 54.8977 32.324 54.5041 33.022C54.1336 33.7175 53.8574 34.3093 53.6755 34.7972ZM68.3146 45.9116C68.1707 45.8802 68.028 45.8603 67.8866 45.8521C67.7427 45.8207 67.5988 45.7892 67.4549 45.7578C67.3341 45.7239 67.1915 45.7041 67.0269 45.6983C66.7606 45.3989 66.6258 45.0152 66.6224 44.5471C66.6166 44.0558 66.6675 43.5468 66.775 43.02C66.9056 42.4907 67.0259 41.9742 67.1359 41.4705C67.269 40.9644 67.3286 40.5364 67.3145 40.1865C67.2814 40.0964 67.2442 40.077 67.2028 40.1282C67.159 40.1564 67.1396 40.1936 67.1445 40.2399C67.0023 40.4425 66.7844 40.5947 66.4908 40.6964C66.1972 40.7982 65.9255 40.8858 65.6758 40.9595C65.2432 41.0761 64.8119 41.2043 64.3819 41.3441C63.9518 41.4839 63.5346 41.634 63.1302 41.7944C63.0558 41.7556 62.9685 41.7064 62.8684 41.6468C62.7915 41.5848 62.7159 41.5344 62.6414 41.4955C62.4793 41.5129 62.3565 41.6783 62.273 41.9917C62.1895 42.3052 62.125 42.6868 62.0795 43.1367C62.0316 43.5635 61.9824 43.9787 61.9319 44.3823C61.9022 44.7602 61.8612 45.034 61.8092 45.2035C61.4436 45.2895 61.1785 45.3296 61.014 45.3239C60.8725 45.3156 60.5988 45.2747 60.1927 45.2011C59.9802 44.9662 59.8499 44.7342 59.8019 44.5052C59.7771 44.2736 59.7845 44.0151 59.8242 43.7298C59.8829 43.1848 59.9296 42.7465 59.9644 42.4148C60.0222 42.0807 60.1281 41.6478 60.2819 41.116C60.3704 40.8488 60.4485 40.5945 60.5163 40.353C60.6048 40.0859 60.6329 39.8018 60.6006 39.5008C60.7611 39.2493 60.8611 38.981 60.9008 38.6956C60.9405 38.4103 60.9918 38.1238 61.0546 37.8359C61.3234 36.8468 61.5346 36.0864 61.6885 35.5546C61.8629 34.9971 61.9804 34.5629 62.0407 34.252C62.1011 33.941 62.1292 33.6569 62.125 33.3997C62.1135 33.0731 62.2929 32.8899 62.6634 32.8501C62.895 32.8253 63.1481 32.8919 63.4226 33.0498C63.6947 33.1846 63.9139 33.372 64.0801 33.6118C64.2464 33.8516 64.2865 34.1167 64.2005 34.407C64.1509 34.5997 64.0674 34.9131 63.95 35.3473C63.8532 35.7559 63.7383 36.2132 63.6051 36.7194C63.4927 37.1999 63.3777 37.6572 63.2603 38.0914C63.1636 38.5 63.0788 38.8018 63.006 38.997C62.9928 39.0921 62.9552 39.1781 62.8932 39.2551C62.8287 39.3088 62.8026 39.3936 62.815 39.5094C62.9895 39.6078 63.2608 39.6256 63.6288 39.5627C64.0175 39.4742 64.288 39.3749 64.4401 39.2649C64.7875 39.2277 65.1232 39.1917 65.4474 39.157C65.7948 39.1197 66.1421 39.0825 66.4895 39.0453C66.8592 39.2165 67.159 39.5005 67.3889 39.8975C67.5039 39.4401 67.6618 38.8376 67.8627 38.09C68.0612 37.3192 68.2493 36.5612 68.4271 35.8161C68.6049 35.0709 68.6971 34.5106 68.7037 34.1351C68.7276 33.9217 68.8004 33.7266 68.922 33.5496C69.0436 33.3726 69.1804 33.2291 69.3326 33.1191C69.6742 33.2464 70.0017 33.3519 70.3151 33.4354C70.6492 33.4933 70.8862 33.7372 71.026 34.1673C71.0251 34.3782 71.0012 34.5916 70.954 34.8074C70.9044 35.0001 70.8548 35.1928 70.8052 35.3855C70.6456 36.0819 70.4356 36.8539 70.1751 37.7016C69.9121 38.5262 69.6748 39.3714 69.4631 40.2373C69.2721 41.0776 69.1572 41.8629 69.1183 42.5931C69.1258 42.6626 69.0927 42.9004 69.0191 43.3064C68.9687 43.71 68.9054 44.1033 68.8294 44.4862C68.7764 44.8666 68.7396 45.0697 68.719 45.0953C68.7363 45.2574 68.7062 45.4129 68.6284 45.5618C68.5482 45.6875 68.4436 45.8041 68.3146 45.9116ZM76.2655 45.2351C75.967 45.2905 75.7214 45.2934 75.5287 45.2438C75.3335 45.171 75.0883 45.0685 74.793 44.9362C74.2414 44.5971 73.8171 44.2444 73.5202 43.878C73.2439 43.486 73.0963 43.092 73.0773 42.6958C73.1012 42.4824 73.0814 42.2972 73.0177 42.1401C72.9772 41.9804 72.9569 41.9006 72.9569 41.9006C72.8055 41.7997 72.7518 41.7352 72.7956 41.7071C72.837 41.6558 72.8642 41.5826 72.8775 41.4875C73.0578 41.4214 73.0673 41.2915 72.906 41.098C72.8167 40.9202 72.8067 40.4997 72.8762 39.8364C72.9663 39.1475 73.1077 38.4999 73.3004 37.8937C73.3888 37.6265 73.515 37.2734 73.6787 36.8342C73.8656 36.3926 74.0756 35.9485 74.3088 35.5019C74.5396 35.0321 74.7571 34.6574 74.9613 34.3779C75.4087 33.7444 75.8144 33.2676 76.1782 32.9475C76.5628 32.6018 76.9999 32.309 77.4895 32.0692C77.9327 31.8343 78.2573 31.6941 78.4633 31.6486C78.6692 31.6031 78.9735 31.711 79.3763 31.9723C79.9495 32.0749 80.3911 32.2618 80.7012 32.533C81.0321 32.7786 81.3108 33.1938 81.5374 33.7785C81.7946 34.4302 81.9382 35.2229 81.968 36.1566C82.0185 37.0647 81.7501 38.2763 81.163 39.7914C80.8198 40.7417 80.4531 41.4719 80.0627 41.9822C79.6955 42.49 79.2382 43.0309 78.6907 43.6049C78.2905 44.0226 77.9163 44.3555 77.5681 44.6036C77.2199 44.8517 76.7857 45.0622 76.2655 45.2351ZM78.6013 40.8038C78.99 40.0594 79.2807 39.3842 79.4733 38.7779C79.6867 38.1461 79.826 37.3699 79.8913 36.4494C79.9103 36.1897 79.8884 35.8759 79.8255 35.5079C79.7602 35.1167 79.6638 34.764 79.5364 34.4497C79.4322 34.1329 79.3094 33.9704 79.168 33.9622C78.8545 33.8786 78.5188 33.9146 78.1607 34.0701C77.8001 34.2025 77.4246 34.5238 77.0343 35.0341C76.6903 35.5394 76.3872 36.0989 76.125 36.7126C75.886 37.3237 75.6764 37.9903 75.4962 38.7123C75.3159 39.4343 75.1522 40.2014 75.005 41.0136C74.8677 41.9183 74.9513 42.5886 75.2557 43.0245C75.5832 43.4578 76.0471 43.5252 76.6476 43.2266C77.2455 42.9049 77.8967 42.0973 78.6013 40.8038ZM93.074 42.8363C92.9069 42.8073 92.682 42.7846 92.3991 42.7681C92.1163 42.7515 91.8529 42.6978 91.6089 42.6068C91.3856 42.4902 91.2628 42.3277 91.2404 42.1193C91.2206 41.934 91.2148 41.7707 91.2231 41.6293C91.252 41.4622 91.3297 41.3134 91.4563 41.1827C91.4745 41.1339 91.4823 41.0979 91.4798 41.0748C91.4773 41.0516 91.4864 41.0272 91.5071 41.0016C91.4947 40.8858 91.4604 40.7841 91.4041 40.6964C91.3479 40.6087 91.3355 40.4929 91.3669 40.349C91.4322 40.0844 91.4794 39.8685 91.5083 39.7015C91.5579 39.5088 91.5678 39.2735 91.5381 38.9956C91.5331 38.9493 91.5281 38.903 91.5232 38.8567C91.5157 38.7872 91.5211 38.7281 91.5393 38.6793C91.6699 38.15 91.7646 37.6128 91.8233 37.0678C91.882 36.5228 92.0011 35.9947 92.1805 35.4836C92.3939 34.8517 92.6684 34.0259 93.0041 33.0062C93.3374 31.9633 93.6099 31.0089 93.8216 30.143C93.8869 29.8784 93.9737 29.7051 94.0821 29.6232C94.2111 29.5157 94.3579 29.4648 94.5224 29.4706C94.8028 29.464 95.0981 29.5963 95.4082 29.8675C95.7159 30.1156 95.9503 30.3364 96.1116 30.53C95.9272 30.9948 95.7052 31.5456 95.4455 32.1824C95.2065 32.7936 94.9779 33.3919 94.7596 33.9775C94.5619 34.5374 94.4238 34.9972 94.3453 35.357C94.6719 35.3454 95.054 35.3044 95.4915 35.2341C95.9497 35.1382 96.4012 35.0898 96.8462 35.0889C97.3606 35.0806 97.8122 35.0322 98.2009 34.9437C98.5896 34.8552 99.0233 34.7502 99.5022 34.6286C99.5807 34.2688 99.6543 33.8628 99.7229 33.4104C99.8147 32.9555 99.9053 32.4891 99.9946 32.011C100.107 31.5305 100.258 31.081 100.447 30.6625C100.637 30.2441 100.894 29.912 101.219 29.6664C101.399 29.6002 101.538 29.5853 101.636 29.6217C101.731 29.6349 101.866 29.6907 102.04 29.7891C102.366 29.9884 102.606 30.1501 102.76 30.2742C102.934 30.3726 103.007 30.5053 102.978 30.6724C102.949 30.8394 102.827 31.1219 102.612 31.5197C102.477 31.7918 102.394 32.1052 102.362 32.46C102.327 32.7917 102.229 33.0832 102.069 33.3346C102.027 33.3859 101.957 33.6042 101.858 33.9896C101.759 34.375 101.645 34.844 101.517 35.3964C101.389 35.9489 101.261 36.5013 101.132 37.0538C101.004 37.6062 100.892 38.0868 100.795 38.4953C100.721 38.9014 100.688 39.1392 100.696 39.2086C100.705 39.5121 100.692 39.8297 100.657 40.1614C100.62 40.4698 100.619 40.7862 100.654 41.1104C100.673 41.2956 100.63 41.4408 100.525 41.5458C100.439 41.6252 100.316 41.6736 100.154 41.691C99.9222 41.7158 99.6612 41.6852 99.3709 41.5992C99.0806 41.5132 98.8611 41.4313 98.7122 41.3536C98.6121 41.2941 98.5187 41.187 98.4318 41.0323C98.3681 40.8752 98.3185 40.74 98.2829 40.6267C98.3598 40.0328 98.4636 39.4713 98.5943 38.942C98.7456 38.387 98.8725 37.823 98.975 37.2499C99.0114 37.1523 99.0247 37.0572 99.0147 36.9645C99.0048 36.8719 98.9717 36.7818 98.9155 36.6941C98.1389 36.6602 97.3607 36.7202 96.5808 36.8741C95.8009 37.0279 95.0314 37.169 94.2721 37.2972C94.1688 37.4254 94.0596 37.7182 93.9447 38.1755C93.8504 38.6072 93.7702 39.0609 93.7041 39.5364C93.6354 39.9888 93.5788 40.3345 93.5341 40.5735C93.5747 40.7331 93.5763 40.9672 93.5391 41.2756C93.5019 41.5841 93.4416 41.8951 93.358 42.2085C93.2721 42.4988 93.1774 42.7081 93.074 42.8363ZM110.677 40.528C110.235 40.9969 109.694 41.3009 109.053 41.4398C108.435 41.5763 107.812 41.5494 107.182 41.3593C106.55 41.1459 106.008 40.7824 105.555 40.2689C105.106 39.8016 104.79 39.25 104.604 38.614C104.417 37.9549 104.312 37.0878 104.29 36.0126C104.263 35.1021 104.456 34.1679 104.868 33.2102C105.279 32.2293 105.804 31.3415 106.445 30.5467C107.109 29.7494 107.785 29.1734 108.473 28.8186C108.796 28.5498 109.074 28.4145 109.308 28.4129C109.563 28.3856 109.947 28.3678 110.462 28.3595C111.002 28.3719 111.407 28.4339 111.676 28.5455C111.969 28.6547 112.209 28.8164 112.396 29.0305C112.78 29.3407 113.049 29.6632 113.202 29.9981C113.353 30.3099 113.445 30.6279 113.48 30.9521C113.442 31.4715 113.162 32.1339 112.639 32.9395C112.137 33.7194 111.436 34.3918 110.537 34.9567C110.044 35.1734 109.496 35.3024 108.892 35.3438C108.287 35.3852 107.773 35.288 107.35 35.0523C106.89 34.9142 106.604 34.98 106.492 35.2496C106.378 35.4961 106.313 36.0886 106.296 37.0273C106.298 37.9172 106.437 38.5581 106.713 38.9501C106.987 39.319 107.324 39.517 107.726 39.5443C108.199 39.5873 108.565 39.6183 108.825 39.6373C109.105 39.6307 109.43 39.4905 109.799 39.2167C110.144 38.9455 110.362 38.7933 110.452 38.7602C110.54 38.704 110.604 38.6502 110.646 38.5989C110.708 38.522 110.842 38.3553 111.049 38.099C111.194 37.9195 111.309 37.7901 111.394 37.7107C111.477 37.6081 111.576 37.5506 111.692 37.5382C111.807 37.5258 111.918 37.5725 112.023 37.6784C112.125 37.7611 112.225 37.8206 112.323 37.857C112.555 37.8322 112.616 37.9662 112.507 38.2589C112.421 38.5492 112.213 38.9111 111.885 39.3444C111.554 39.7547 111.152 40.1492 110.677 40.528ZM109.853 33.1678C110.095 33.0248 110.344 32.8341 110.6 32.5959C110.853 32.3346 111.058 32.0666 111.216 31.792C111.395 31.4918 111.474 31.2491 111.454 31.0638C111.42 30.7396 111.241 30.4895 110.917 30.3133C110.591 30.114 110.136 30.1277 109.551 30.3543C109.304 30.4511 109.033 30.6558 108.739 30.9684C108.442 31.2579 108.16 31.5808 107.894 31.9373C107.651 32.2913 107.45 32.6056 107.292 32.8801C107.158 33.1522 107.116 33.309 107.167 33.3503C107.249 33.4586 107.456 33.5302 107.787 33.5649C108.117 33.5765 108.477 33.5496 108.868 33.4842C109.282 33.4164 109.611 33.3109 109.853 33.1678ZM126.063 39.7221C125.404 39.9098 124.786 39.9409 124.211 39.8152C123.633 39.6663 123.145 39.379 122.748 38.9531C122.372 38.5015 122.144 37.9052 122.065 37.1642C121.921 36.477 121.916 35.6694 122.051 34.7415C122.183 33.7904 122.42 32.8281 122.76 31.8547C123.124 30.8788 123.536 30.0265 123.997 29.2979C124.401 28.6925 124.809 28.1334 125.223 27.6206C125.636 27.1078 126.019 26.7506 126.373 26.5487C126.682 26.3751 126.974 26.2617 127.25 26.2088C127.546 26.1302 127.786 26.081 127.972 26.0612C128.352 26.1141 128.764 26.2456 129.208 26.4556C129.673 26.64 129.921 26.8712 129.95 27.149C129.95 27.149 129.977 27.1813 130.031 27.2458C130.105 27.2847 130.143 27.3041 130.143 27.3041C130.282 27.2892 130.413 27.4273 130.538 27.7184C130.686 28.0071 130.793 28.347 130.858 28.7381C130.921 29.1062 130.897 29.425 130.785 29.6946C130.74 30.1445 130.619 30.544 130.422 30.893C130.225 31.242 130.034 31.4264 129.849 31.4463C129.756 31.4562 129.665 31.4777 129.575 31.5108C129.505 31.5182 129.477 31.5799 129.489 31.6956C129.501 31.8114 129.437 31.8652 129.296 31.8569C129.177 31.8462 129.042 31.7904 128.891 31.6895C128.737 31.5654 128.616 31.4145 128.526 31.2367C128.514 31.1209 128.539 30.9191 128.602 30.6313C128.665 30.3435 128.719 29.9746 128.764 29.5247C128.834 28.8614 128.778 28.4459 128.596 28.278C128.411 28.0869 128.097 28.1089 127.654 28.3438C127.11 28.73 126.603 29.2411 126.132 29.8771C125.685 30.5107 125.291 31.3141 124.95 32.2876C124.607 33.2378 124.335 34.4147 124.134 35.8182C124.052 36.3657 124.044 36.835 124.109 37.2262C124.198 37.6149 124.278 37.8171 124.35 37.8328C124.684 37.8907 125.126 37.8667 125.677 37.7608C126.225 37.6318 126.619 37.4841 126.859 37.3179C127.21 37.0929 127.601 36.8051 128.032 36.4544C128.46 36.0806 128.834 35.7477 129.154 35.4557C129.263 35.3739 129.389 35.2432 129.534 35.0637C129.679 34.8842 129.839 34.7383 130.014 34.6258C130.169 34.328 130.314 34.1486 130.448 34.0874C130.582 34.0262 130.788 33.9807 131.066 33.9509C131.256 33.9773 131.437 34.0282 131.609 34.1035C131.781 34.1787 131.895 34.2602 131.952 34.3478C132.031 34.433 132.005 34.5178 131.873 34.6021C131.781 34.6121 131.727 34.653 131.711 34.725C131.716 34.7713 131.718 34.7944 131.718 34.7944C131.775 34.8821 131.692 35.0901 131.469 35.4184C131.267 35.7211 131 36.066 130.666 36.4531C130.333 36.8401 130.007 37.1796 129.687 37.4716C129.387 37.7379 129.168 37.8785 129.029 37.8934C128.797 37.9182 128.689 38.0001 128.704 38.1391C128.709 38.1854 128.548 38.3198 128.22 38.5422C127.916 38.7622 127.554 38.9885 127.134 39.2209C126.737 39.4508 126.38 39.6179 126.063 39.7221ZM137.129 37.5874C136.652 37.7322 136.343 37.8004 136.202 37.7922C136.081 37.7582 135.881 37.6392 135.602 37.4349C135.211 37.2894 134.874 37.0913 134.589 36.8407C134.328 36.5877 134.123 36.3168 133.975 36.0282C133.848 35.7139 133.785 35.4513 133.785 35.2404C133.768 34.4225 133.872 33.533 134.097 32.572C134.322 31.611 134.62 30.6773 134.991 29.7708C135.362 28.8644 135.782 28.0816 136.25 27.4225C136.739 26.7377 137.228 26.2753 137.718 26.0355C138.161 25.8006 138.593 25.684 139.015 25.6856C139.437 25.6872 139.761 25.875 139.989 26.2488C140.408 26.8831 140.373 27.3202 139.884 27.56C139.814 27.5675 139.737 27.6109 139.652 27.6903C139.564 27.7465 139.525 27.821 139.535 27.9136C139.633 27.95 139.889 27.9342 140.303 27.8664C140.715 27.7754 141.124 27.6613 141.531 27.524C141.959 27.361 142.236 27.2142 142.362 27.0836C142.494 26.9992 142.594 26.9533 142.664 26.9458C142.733 26.9384 142.909 26.9429 143.192 26.9595C143.598 27.0331 143.81 27.1509 143.827 27.313C143.837 27.4056 143.882 27.4945 143.961 27.5797C144.038 27.6417 144.123 27.6678 144.216 27.6579C144.38 27.6636 144.368 27.7703 144.18 27.9779C144.014 28.183 143.717 28.4725 143.289 28.8463C142.879 29.1714 142.621 29.3864 142.515 29.4914C142.43 29.5708 142.435 29.7342 142.532 29.9815C142.765 30.4016 142.831 30.9098 142.731 31.5061C142.631 32.1024 142.405 32.7239 142.052 33.3706C141.7 34.0174 141.251 34.6393 140.706 35.2365C140.182 35.808 139.604 36.315 138.972 36.7574C138.361 37.1743 137.746 37.4509 137.129 37.5874ZM136.374 36.1224C136.467 36.1124 136.624 36.0488 136.846 35.9313C137.065 35.7907 137.24 35.6782 137.372 35.5939C137.454 35.4913 137.559 35.3747 137.686 35.244C137.833 35.0877 137.951 34.993 138.042 34.9599C138.134 34.95 138.246 34.9029 138.378 34.8185C138.507 34.711 138.685 34.5162 138.912 34.2342C139.137 33.929 139.43 33.4878 139.789 32.9105C140.198 32.3514 140.507 31.8498 140.717 31.4057C140.925 30.9384 140.951 30.5257 140.795 30.1676C140.762 30.0775 140.687 30.027 140.568 30.0163C140.473 30.003 140.34 29.9588 140.168 29.8835C139.936 29.9084 139.71 29.8741 139.489 29.7806C139.289 29.6615 139.05 29.5114 138.773 29.3303L138.143 28.6952L137.616 29.349C137.285 29.7592 136.951 30.3571 136.614 31.1428C136.297 31.9029 136.041 32.6799 135.845 33.4738C135.646 34.2446 135.547 34.8525 135.548 35.2974C135.562 35.6473 135.645 35.8726 135.796 35.9735C135.948 36.0744 136.14 36.124 136.374 36.1224ZM145.183 32.5783C145.167 32.2053 145.187 31.7347 145.243 31.1665C145.299 30.5984 145.346 30.0546 145.384 29.5352C145.445 29.0134 145.442 28.6507 145.373 28.4473C145.268 28.3414 145.153 28.2484 145.027 28.1682C144.901 28.0879 144.776 28.0077 144.65 27.9275C144.669 27.6678 144.69 27.4313 144.714 27.2179C144.761 27.0021 144.917 26.8098 145.18 26.6411L145.434 26.7192C145.501 26.6886 145.568 26.658 145.635 26.6274C145.699 26.5736 145.753 26.5327 145.797 26.5046C145.984 26.0629 146.144 25.589 146.277 25.0829C146.408 24.5536 146.519 24.0615 146.611 23.6066C146.685 23.2006 146.81 22.7304 146.987 22.1961C147.164 21.6619 147.351 21.2202 147.547 20.8712C147.667 20.6711 147.764 20.485 147.839 20.3129C147.912 20.1178 147.985 19.9226 148.057 19.7274C148.221 19.2882 148.462 18.8057 148.78 18.2797C149.096 17.7305 149.451 17.2124 149.844 16.7252C150.257 16.2124 150.648 15.8192 151.017 15.5454C151.383 15.2485 151.704 15.0736 151.98 15.0206C152.253 14.9445 152.608 14.8713 153.045 14.801C153.292 14.9151 153.594 15.1169 153.953 15.4064C154.336 15.6933 154.541 15.9758 154.571 16.2536C154.596 16.4852 154.623 16.7399 154.653 17.0178C154.68 17.2725 154.647 17.5103 154.554 17.7311C154.594 17.8907 154.602 18.0657 154.575 18.2559C154.546 18.4229 154.507 18.6028 154.457 18.7955C154.444 18.8906 154.42 18.9985 154.387 19.1193C154.376 19.2376 154.365 19.3558 154.354 19.4741C154.011 20.4244 153.688 21.232 153.384 21.8969C153.101 22.5362 152.776 23.1098 152.409 23.6176C152.063 24.0997 151.638 24.6138 151.134 25.1596C150.651 25.6798 150.061 26.2935 149.364 27.0007C149.77 27.0742 150.138 27.2338 150.469 27.4795C150.798 27.7019 150.998 28.0435 151.071 28.5041C151.083 28.6199 151.085 28.7485 151.077 28.8899C151.092 29.0289 151.118 29.1666 151.157 29.303C151.235 29.5991 151.289 29.8861 151.319 30.164C151.37 30.4162 151.421 30.68 151.474 30.9554C151.55 31.2283 151.586 31.5641 151.582 31.9627C151.578 32.3614 151.568 32.7021 151.551 32.9849C151.538 33.0801 151.509 33.1417 151.466 33.1698C151.442 33.1723 151.437 33.2314 151.449 33.3472C151.489 33.7177 151.443 34.0506 151.311 34.3458C151.178 34.6411 151.038 34.9723 150.89 35.3395C150.833 35.4628 150.752 35.5769 150.646 35.6819C150.537 35.7638 150.443 35.8676 150.363 35.9933C150.019 36.4986 149.642 36.8084 149.233 36.9225C148.847 37.0342 148.395 37.188 147.877 37.384L147.815 37.461C147.563 37.3005 147.377 37.2034 147.257 37.1695C147.159 37.1331 146.978 37.0822 146.713 37.0169C146.609 36.7001 146.412 36.3933 146.123 36.0964C145.856 35.7971 145.681 35.4762 145.598 35.1338C145.557 34.9742 145.53 34.8249 145.515 34.686C145.521 34.5214 145.458 34.3758 145.327 34.2493C145.477 34.1161 145.485 33.9747 145.352 33.825C145.219 33.6753 145.214 33.5236 145.339 33.3697C145.334 33.3234 145.329 33.2771 145.324 33.2308C145.342 33.182 145.35 33.146 145.347 33.1229C145.319 33.079 145.288 33.0121 145.255 32.9219C145.22 32.8086 145.196 32.6941 145.183 32.5783ZM148.414 35.1833C148.913 34.5911 149.225 34.0072 149.35 33.4316C149.474 32.8329 149.503 32.2324 149.438 31.6304C149.395 31.0026 149.335 30.3414 149.261 29.6467C149.249 29.5309 149.213 29.4176 149.154 29.3068C149.119 29.1935 149.119 29.0881 149.156 28.9905C149.036 28.7457 148.913 28.4777 148.788 28.1866C148.661 27.8724 148.457 27.6131 148.178 27.4088C148.003 27.5213 147.863 27.6417 147.76 27.7698C147.657 27.898 147.527 28.111 147.372 28.4087C147.281 28.6527 147.211 29.0935 147.162 29.7312C147.136 30.3663 147.141 31.0685 147.177 31.8376C147.21 32.5836 147.285 33.2783 147.4 33.9217C147.539 34.5627 147.727 34.9993 147.962 35.2317L148.414 35.1833ZM150.96 18.292C150.265 19.2332 149.674 20.2802 149.189 21.4331C148.703 22.586 148.346 23.7368 148.118 24.8856L148.523 25.053L150.107 23.4427C150.171 23.389 150.294 23.2236 150.475 22.9465C150.656 22.6695 150.825 22.3821 150.98 22.0843C151.156 21.7609 151.252 21.5633 151.268 21.4913C151.459 21.3069 151.635 20.9835 151.796 20.5212C151.981 20.0564 152.137 19.5478 152.265 18.9953C152.391 18.4197 152.474 17.8838 152.514 17.3876C152.576 16.8657 152.569 16.4799 152.496 16.2301L152.264 16.3604C152.065 16.6863 151.854 17.0134 151.631 17.3417C151.406 17.6469 151.183 17.9636 150.96 18.292ZM156.133 36.0424C155.19 35.7687 154.545 35.3225 154.198 34.7039C153.871 34.0597 153.714 33.0342 153.728 31.6274C153.697 30.9046 153.669 30.4274 153.644 30.1958C153.62 29.9642 153.467 29.7463 153.188 29.5421C153.108 29.4569 152.967 29.3432 152.765 29.2009C152.585 29.0562 152.501 28.9247 152.512 28.8064C152.471 28.6468 152.464 28.4719 152.491 28.2817C152.515 28.0683 152.573 27.9567 152.665 27.9467C152.758 27.9368 152.848 27.9037 152.936 27.8475C153.047 27.7888 153.151 27.7776 153.249 27.814C153.341 27.8041 153.447 27.8045 153.565 27.8152C153.683 27.826 153.747 27.8776 153.757 27.9703C153.867 28.1224 154.02 28.1295 154.216 27.9913C154.41 27.8301 154.597 27.5054 154.779 27.0175C154.971 26.6222 155.233 26.2194 155.563 25.8092C155.917 25.3965 156.263 25.0198 156.602 24.679C156.961 24.3126 157.26 24.0463 157.5 23.8801C157.611 23.8213 157.778 23.7448 158.002 23.6505C158.226 23.5563 158.463 23.4723 158.713 23.3987C158.986 23.3226 159.216 23.2862 159.404 23.2895C159.823 23.268 160.183 23.3465 160.483 23.5252C160.807 23.7013 161.111 23.9147 161.395 24.1652C161.718 24.3414 161.933 24.5994 162.04 24.9393C162.17 25.2767 162.233 25.6448 162.229 26.0434C162.225 26.442 162.159 26.8121 162.032 27.1537C161.987 27.3927 161.82 27.6917 161.53 28.0506C161.241 28.4096 160.904 28.7619 160.519 29.1076C160.135 29.4533 159.776 29.7142 159.444 29.8904C159.15 29.9922 158.763 30.0922 158.282 30.1907C157.823 30.2866 157.386 30.3569 156.969 30.4016C156.573 30.4207 156.302 30.4029 156.155 30.3483C155.983 30.273 155.869 30.4141 155.814 30.7713C155.759 31.1286 155.743 31.6339 155.766 32.2873C155.774 32.8017 155.814 33.1722 155.885 33.3988C155.956 33.6254 156.02 33.7825 156.076 33.8702C156.255 34.0149 156.498 34.1998 156.803 34.4247C157.129 34.624 157.549 34.6141 158.065 34.3949C158.492 34.2319 158.888 33.885 159.253 33.354C159.641 32.8206 160.004 32.3835 160.342 32.0427C160.417 31.8707 160.558 31.7619 160.764 31.7164C160.991 31.6453 161.235 31.6308 161.497 31.673C161.769 31.8078 161.894 31.9935 161.873 32.23C161.872 32.4409 161.791 32.7775 161.63 33.2398C161.578 33.4093 161.438 33.6351 161.211 33.9172C161.004 34.1735 160.764 34.4452 160.49 34.7322C160.237 34.9936 160.002 35.2061 159.785 35.3699C159.13 35.8148 158.503 36.0812 157.903 36.1689C157.301 36.2334 156.711 36.1912 156.133 36.0424ZM157.427 28.7715C157.924 28.6011 158.32 28.4767 158.616 28.3981C158.912 28.3195 159.188 28.1611 159.444 27.9229C159.697 27.6616 159.998 27.1959 160.348 26.526C160.413 26.2614 160.409 26.0042 160.336 25.7544C160.285 25.5022 160.209 25.3347 160.106 25.252C159.873 25.0428 159.611 25.0006 159.32 25.1255C159.049 25.2248 158.797 25.3807 158.562 25.5932C158.407 25.6801 158.183 25.8798 157.888 26.1924C157.614 26.4794 157.346 26.8127 157.082 27.1923C156.816 27.5488 156.605 27.8759 156.449 28.1736C156.294 28.4714 156.265 28.6384 156.362 28.6748C156.326 28.7724 156.46 28.8166 156.763 28.8075C157.09 28.7959 157.311 28.7839 157.427 28.7715ZM165.495 34.1607C165.223 34.0259 164.969 33.8423 164.733 33.6099C164.495 33.3543 164.353 33.0182 164.309 32.6013C164.284 32.3698 164.288 31.9711 164.321 31.4054C164.354 30.8398 164.415 30.2009 164.502 29.4888C164.59 28.7767 164.682 28.111 164.78 27.4915C164.967 27.0499 165.119 26.612 165.236 26.1778C165.354 25.7436 165.408 25.4802 165.398 25.3875C165.414 25.1047 165.437 24.7743 165.467 24.3963C165.52 24.0159 165.577 23.6702 165.637 23.3592C165.697 23.0483 165.748 22.8672 165.79 22.8159C165.893 22.6877 166.024 22.6033 166.184 22.5628C166.341 22.4991 166.506 22.5049 166.678 22.5801C166.87 22.6298 167.026 22.7654 167.143 22.987C167.428 23.2376 167.591 23.5597 167.633 23.9534C167.673 24.3239 167.605 24.8933 167.43 25.6616C167.271 26.1471 167.121 26.7136 166.979 27.3612C166.838 28.0087 166.715 28.6075 166.61 29.1575C166.525 29.6818 166.482 30.0379 166.478 30.2256L165.806 30.5085C166.16 30.0958 166.49 29.674 166.795 29.2431C167.097 28.789 167.317 28.4375 167.455 28.1886C167.791 27.6138 168.08 27.1378 168.32 26.7607C168.582 26.3579 168.917 25.877 169.325 25.3179C169.731 24.7357 170.148 24.3631 170.576 24.2001C171.024 24.0116 171.375 23.9036 171.63 23.8763C172.149 23.9143 172.583 24.1372 172.931 24.5449C173.3 24.927 173.576 25.5299 173.758 26.3536C173.792 26.6778 173.799 27.0636 173.776 27.511C173.777 27.956 173.778 28.1784 173.778 28.1784C173.778 28.1784 173.937 27.9154 174.255 27.3894C174.597 26.861 175.061 26.2725 175.647 25.6241C176.052 25.2527 176.461 25.0216 176.873 24.9306C177.282 24.8164 177.667 24.9157 178.029 25.2283C178.666 25.4879 179.113 25.9436 179.37 26.5953C179.625 27.2238 179.76 28.0525 179.777 29.0813C179.772 29.6909 179.809 30.1436 179.887 30.4397C179.963 30.7126 180.063 30.9831 180.185 31.251C180.38 31.3238 180.436 31.5169 180.353 31.8304C180.267 32.1206 180.143 32.2745 179.98 32.2918C179.749 32.3167 179.478 32.2989 179.167 32.2385C178.879 32.1757 178.608 32.0525 178.354 31.8689C178.121 31.6597 177.983 31.3582 177.941 30.9645L177.71 28.811C177.656 28.3015 177.588 27.8872 177.507 27.568C177.449 27.2462 177.37 27.0556 177.27 26.9961C177 26.8844 176.646 27.0747 176.207 27.5668C175.767 28.0589 175.31 28.7052 174.833 29.5058C174.357 30.3064 173.918 31.1264 173.516 31.9658C173.153 32.7308 172.92 33.1774 172.816 33.3056C172.734 33.4082 172.556 33.3921 172.284 33.2573C171.757 33.1498 171.41 32.9645 171.241 32.7016C171.093 32.4129 171.045 32.0784 171.098 31.698C171.172 31.2919 171.254 30.7444 171.344 30.0555C171.457 29.3641 171.561 28.6971 171.656 28.0545C171.749 27.3887 171.803 26.9144 171.82 26.6316C171.708 26.4562 171.539 26.4157 171.315 26.51C171.112 26.5787 170.903 26.7064 170.689 26.8934C170.431 27.1084 170.132 27.4917 169.793 28.0434C169.454 28.595 169.112 29.2289 168.767 29.9452C168.536 30.4149 168.294 30.8859 168.04 31.3582C167.784 31.8073 167.546 32.2075 167.326 32.559C167.106 32.9105 166.912 33.1773 166.744 33.3592C166.474 33.9034 166.284 34.2049 166.173 34.2636C166.063 34.3223 165.836 34.288 165.495 34.1607ZM186.184 33.2782C185.525 33.466 184.908 33.497 184.332 33.3713C183.754 33.2225 183.267 32.9351 182.87 32.5092C182.493 32.0577 182.266 31.4614 182.186 30.7204C182.042 30.0331 182.038 29.2255 182.172 28.2976C182.305 27.3465 182.541 26.3842 182.882 25.4108C183.246 24.4349 183.658 23.5826 184.119 22.854C184.522 22.2486 184.931 21.6895 185.344 21.1767C185.758 20.664 186.141 20.3067 186.494 20.1049C186.803 19.9312 187.096 19.8179 187.371 19.7649C187.667 19.6864 187.908 19.6371 188.093 19.6173C188.474 19.6702 188.886 19.8017 189.33 20.0117C189.795 20.1961 190.042 20.4273 190.072 20.7052C190.072 20.7052 190.099 20.7374 190.152 20.8019C190.227 20.8408 190.264 20.8602 190.264 20.8602C190.403 20.8453 190.535 20.9834 190.66 21.2745C190.808 21.5632 190.915 21.9031 190.98 22.2943C191.043 22.6623 191.018 22.9811 190.907 23.2507C190.861 23.7006 190.74 24.1001 190.543 24.4491C190.347 24.7981 190.156 24.9825 189.97 25.0024C189.878 25.0123 189.786 25.0338 189.696 25.0669C189.627 25.0744 189.598 25.136 189.611 25.2518C189.623 25.3675 189.558 25.4213 189.417 25.413C189.299 25.4023 189.164 25.3465 189.013 25.2456C188.859 25.1215 188.737 24.9706 188.648 24.7928C188.635 24.677 188.661 24.4752 188.723 24.1874C188.786 23.8996 188.84 23.5307 188.886 23.0808C188.955 22.4176 188.899 22.002 188.717 21.8341C188.533 21.6431 188.219 21.665 187.776 21.8999C187.231 22.2861 186.724 22.7973 186.254 23.4333C185.806 24.0668 185.412 24.8703 185.071 25.8437C184.728 26.7939 184.456 27.9708 184.255 29.3743C184.173 29.9218 184.165 30.3911 184.23 30.7823C184.319 31.171 184.399 31.3732 184.471 31.3889C184.805 31.4468 185.248 31.4228 185.799 31.3169C186.347 31.1879 186.741 31.0402 186.981 30.874C187.331 30.649 187.722 30.3612 188.153 30.0105C188.581 29.6367 188.956 29.3038 189.276 29.0119C189.384 28.93 189.511 28.7993 189.655 28.6198C189.8 28.4404 189.96 28.2944 190.135 28.1819C190.291 27.8842 190.436 27.7047 190.57 27.6435C190.704 27.5823 190.909 27.5368 191.187 27.507C191.378 27.5335 191.559 27.5843 191.731 27.6596C191.903 27.7348 192.017 27.8163 192.073 27.904C192.152 27.9891 192.126 28.0739 191.995 28.1583C191.902 28.1682 191.848 28.2091 191.832 28.2811C191.837 28.3274 191.84 28.3506 191.84 28.3506C191.896 28.4382 191.813 28.6462 191.591 28.9746C191.389 29.2773 191.121 29.6221 190.788 30.0092C190.455 30.3963 190.128 30.7358 189.808 31.0277C189.509 31.294 189.289 31.4346 189.151 31.4495C188.919 31.4744 188.811 31.5562 188.825 31.6952C188.83 31.7415 188.669 31.8759 188.342 32.0984C188.037 32.3184 187.675 32.5446 187.255 32.777C186.858 33.0069 186.501 33.174 186.184 33.2782ZM194.143 32.636C193.95 32.5864 193.738 32.4686 193.507 32.2825C193.274 32.0733 193.072 31.8256 192.901 31.5394C192.73 31.2533 192.63 30.9829 192.603 30.7281C192.692 30.461 192.795 30.0049 192.913 29.3598C193.029 28.6916 193.181 27.9257 193.37 27.0623C193.528 26.7877 193.634 26.4718 193.69 26.1145C193.768 25.7548 193.839 25.431 193.902 25.1432C194.047 24.7528 194.216 24.2545 194.409 23.6483C194.599 23.0189 194.778 22.3908 194.945 21.7639C195.133 21.1114 195.297 20.5668 195.437 20.1301C195.628 19.5007 195.738 19.1141 195.77 18.9702C195.799 18.8031 195.82 18.672 195.833 18.5769C195.813 18.3917 195.843 18.2362 195.924 18.1105C196.001 17.9616 196.086 17.8822 196.179 17.8723C196.262 17.7697 196.361 17.7122 196.477 17.6998C196.613 17.6618 196.728 17.6378 196.82 17.6279C197.075 17.6006 197.314 17.7507 197.536 18.0781C197.756 18.3825 197.881 18.6736 197.911 18.9515C197.941 19.2294 197.879 19.6342 197.725 20.166C197.592 20.6721 197.426 21.2051 197.229 21.7651C197.054 22.3225 196.907 22.8067 196.787 23.2177C196.667 23.6288 196.646 23.8653 196.723 23.9273C196.723 23.9273 196.877 23.8405 197.187 23.6668C197.493 23.47 197.817 23.2127 198.158 22.8951C198.398 22.7289 198.657 22.5254 198.936 22.2848C199.214 22.0441 199.483 21.8162 199.741 21.6012C199.996 21.363 200.214 21.2108 200.395 21.1447C200.653 20.9296 200.923 20.7249 201.207 20.5306C201.488 20.313 201.67 20.153 201.753 20.0505C202.127 19.823 202.41 19.7341 202.603 19.7837C202.819 19.8308 203.046 19.9822 203.284 20.2377C203.571 20.5115 203.646 20.7728 203.508 21.0217C203.369 21.2475 203.018 21.5779 202.455 22.013C202.001 22.3661 201.449 22.7883 200.799 23.2796C200.172 23.7684 199.61 24.2035 199.112 24.5847C198.637 24.9635 198.369 25.1914 198.307 25.2683C198.307 25.2683 198.418 25.432 198.641 25.7595C198.863 26.087 199.082 26.3798 199.297 26.6378C199.522 26.9885 199.756 27.3147 199.999 27.6166C200.263 27.8928 200.401 28.0888 200.413 28.2046C200.651 28.671 200.926 29.0514 201.238 29.3459C201.549 29.6171 201.882 29.7804 202.24 29.8358C202.618 29.8656 202.983 29.7796 203.336 29.5778C203.779 29.3429 204.109 29.249 204.325 29.2961C204.564 29.3408 204.745 29.4971 204.867 29.765C204.98 29.9403 205.018 30.0768 204.981 30.1744C204.965 30.2463 204.834 30.4362 204.585 30.7438C204.193 31.231 203.771 31.5572 203.32 31.7227C202.893 31.8856 202.484 31.8943 202.093 31.7488C201.862 31.7736 201.585 31.7095 201.265 31.5565C200.941 31.3804 200.535 31.0843 200.045 30.6683C199.579 30.2499 198.988 29.6573 198.274 28.8907C198.264 28.7981 198.204 28.6757 198.094 28.5235C198.004 28.3457 197.905 28.1807 197.795 28.0285C197.682 27.8532 197.545 27.6688 197.384 27.4753C197.22 27.2586 197.138 27.1502 197.138 27.1502C197.131 27.0808 197.102 27.0254 197.05 26.984C197.02 26.917 196.965 26.8409 196.885 26.7558C196.829 26.6681 196.76 26.5701 196.678 26.4618C196.295 26.3857 196.036 26.4837 195.902 26.7558C195.767 27.0279 195.622 27.3128 195.466 27.6106C195.383 27.924 195.278 28.3685 195.152 28.9441C195.047 29.4941 194.964 30.03 194.903 30.5519C194.865 31.0713 194.879 31.4211 194.945 31.6014C194.985 31.9719 194.954 32.2328 194.853 32.3842C194.75 32.5124 194.513 32.5963 194.143 32.636ZM213.683 30.6471C213.427 30.4403 213.162 30.1525 212.888 29.7837C212.612 29.3917 212.375 28.9368 212.179 28.4191C212.113 28.2388 212.063 27.9866 212.028 27.6624C212.016 27.3357 211.992 27.1042 211.954 26.9677C211.902 27.1372 211.804 27.3233 211.662 27.526C211.541 27.7029 211.416 27.8568 211.29 27.9875C211.207 28.09 211.019 28.2976 210.724 28.6102C210.427 28.8997 210.126 29.1429 209.819 29.3397C209.107 29.9079 208.498 30.2424 207.994 30.3434C207.513 30.4418 207.022 30.2367 206.523 29.7281C206.12 29.4668 205.818 29.1596 205.616 28.8064C205.437 28.4508 205.383 27.9414 205.452 27.2781C205.411 26.4626 205.443 25.6629 205.546 24.8789C205.647 24.0717 205.917 22.9887 206.357 21.6299C206.742 20.6283 207.038 19.8939 207.245 19.4266C207.451 18.9362 207.583 18.6409 207.642 18.5409C207.977 18.3878 208.268 18.3684 208.515 18.4825C208.758 18.5735 208.921 18.7786 209.002 19.0978C209.166 19.3145 209.185 19.7106 209.059 20.2862C208.957 20.8594 208.74 21.5735 208.41 22.4287C208.171 23.2508 207.954 24.0704 207.761 24.8875C207.59 25.7021 207.512 26.3898 207.525 26.9505C207.538 27.5112 207.713 27.8321 208.05 27.9131C208.27 28.0066 208.626 27.9334 209.115 27.6935C209.628 27.4512 210.169 26.9248 210.738 26.1143C211.33 25.3013 211.858 24.1087 212.322 22.5365C212.458 22.0535 212.553 21.6333 212.608 21.2761C212.661 20.8956 212.676 20.4842 212.652 20.0417C212.576 19.7688 212.561 19.5244 212.608 19.3086C212.676 19.0671 212.84 18.8504 213.101 18.6585C213.181 18.5328 213.297 18.4149 213.449 18.3049C213.599 18.1718 213.703 18.1606 213.762 18.2714L214.314 18.1771C214.404 18.144 214.468 18.1957 214.506 18.3322C214.565 18.443 214.657 18.5385 214.783 18.6187C215.06 18.7999 215.178 19.244 215.137 19.9511C215.095 20.6582 214.875 21.6655 214.477 22.9731C214.139 23.9696 213.914 24.7198 213.804 25.2234C213.718 25.7246 213.687 26.208 213.714 26.6736C213.759 27.0904 213.882 27.4754 214.084 27.8286C214.285 28.1817 214.576 28.4902 214.956 28.754C215.228 28.8888 215.387 29.0591 215.432 29.2651C215.501 29.4685 215.538 29.7104 215.545 29.9908C215.521 30.2041 215.401 30.3927 215.184 30.5565C214.988 30.6946 214.751 30.7785 214.473 30.8083C214.195 30.8381 213.932 30.7844 213.683 30.6471ZM220.549 30.0869C219.53 30.1961 218.655 29.9034 217.925 29.2087C217.192 28.4909 216.775 27.5518 216.674 26.3915C216.631 25.5529 216.698 24.644 216.874 23.6648C217.071 22.6599 217.365 21.6914 217.757 20.7594C218.146 19.8041 218.595 18.9597 219.102 18.2261C219.609 17.4925 220.16 16.9533 220.755 16.6084C220.974 16.4678 221.208 16.3491 221.455 16.2523C221.725 16.1531 221.999 16.0886 222.277 16.0588C222.532 16.0315 222.803 16.0493 223.091 16.1121C223.376 16.1518 223.617 16.208 223.812 16.2808C224.223 16.4007 224.545 16.5653 224.778 16.7745C225.012 16.9837 225.235 17.3228 225.449 17.7917C225.566 18.2242 225.634 18.5331 225.654 18.7184C225.674 18.9036 225.646 19.1877 225.57 19.5706C225.381 20.4341 225.099 21.1904 224.724 21.8396C224.348 22.4889 223.813 23.0616 223.116 23.5578C222.943 23.6935 222.733 23.8097 222.486 23.9065C222.259 23.9776 222.019 24.0268 221.764 24.0541C221.301 24.1037 220.841 24.0711 220.383 23.9562C219.947 23.8156 219.582 23.5853 219.29 23.2652L219.017 23.0134L218.943 23.3024C218.778 23.9525 218.655 24.5513 218.573 25.0988C218.515 25.6438 218.509 26.1363 218.556 26.5762C218.586 26.8541 218.638 27.1179 218.711 27.3677C218.808 27.615 218.924 27.825 219.06 27.9979C219.167 28.1269 219.329 28.215 219.545 28.2621C219.781 28.2836 220.027 28.2807 220.282 28.2534C220.444 28.236 220.606 28.2186 220.768 28.2013C220.951 28.1583 221.12 28.0933 221.274 28.0065C221.653 27.8254 221.949 27.6413 222.164 27.4544C222.401 27.265 222.637 27.064 222.872 26.8515L223.003 26.7671L222.969 26.7708C223.232 26.6021 223.46 26.4371 223.653 26.2758C223.87 26.1121 223.978 26.0302 223.978 26.0302C224.071 26.0203 224.158 25.9525 224.238 25.8267C224.413 25.7143 224.648 25.7242 224.944 25.8565C225.262 25.9863 225.435 26.1786 225.462 26.4333C225.451 26.5516 225.367 26.748 225.209 27.0226C225.049 27.274 224.864 27.5163 224.655 27.7496C224.469 27.9803 224.307 28.1147 224.171 28.1528C224.15 28.1784 224.074 28.2334 223.943 28.3178C223.809 28.379 223.721 28.4352 223.68 28.4865L223.714 28.4828C223.536 28.783 223.342 28.9443 223.134 28.9666L222.856 28.9964C222.781 29.1684 222.499 29.3859 222.012 29.6489C221.523 29.8888 221.035 30.0348 220.549 30.0869ZM221.293 22.2777C221.709 22.233 222.056 22.0787 222.332 21.8149C222.629 21.5254 222.877 21.2178 223.076 20.8919C223.473 20.217 223.674 19.5864 223.682 19.0001C223.71 18.3881 223.596 17.9787 223.339 17.7719C223.193 17.7174 223.062 17.6963 222.946 17.7087C222.851 17.6955 222.658 17.7513 222.367 17.8762C222.163 17.9448 221.892 18.1495 221.554 18.4903C221.216 18.831 220.881 19.2065 220.551 19.6167C220.243 20.0245 220.01 20.3656 219.852 20.6402L219.479 21.418C219.657 21.3287 219.827 21.2754 219.989 21.258C220.172 21.215 220.277 21.2154 220.305 21.2592C220.327 21.4676 220.383 21.6607 220.473 21.8385C220.583 21.9907 220.7 22.1069 220.826 22.1871C220.975 22.2649 221.13 22.295 221.293 22.2777ZM238.701 18.3741C238.562 18.389 238.376 18.4088 238.145 18.4336C237.934 18.4328 237.627 18.4072 237.223 18.3568C236.876 18.394 236.64 18.3841 236.517 18.327C236.392 18.2468 236.274 18.1306 236.164 17.9784C235.802 17.6658 235.743 17.438 235.985 17.2949C236.248 17.1262 236.861 16.9434 237.823 16.7465C238.707 16.4645 239.654 16.2341 240.666 16.0554C241.677 15.8768 242.715 15.7303 243.781 15.6162C244.498 15.5392 244.976 15.5115 245.212 15.533C245.449 15.5545 245.708 15.6789 245.99 15.9064C246.444 16.209 246.631 16.5287 246.549 16.8653C246.466 17.1787 246.141 17.3189 245.576 17.2859C245.347 17.3338 244.979 17.3967 244.472 17.4745C243.965 17.5522 243.447 17.6428 242.92 17.7462C242.758 17.7636 242.436 17.8215 241.955 17.9199C241.494 17.9927 240.964 18.073 240.364 18.1606C239.788 18.2458 239.233 18.317 238.701 18.3741ZM237.319 23.5112C237.18 23.5261 236.995 23.546 236.763 23.5708C236.552 23.57 236.257 23.5431 235.876 23.4902C235.506 23.5299 235.259 23.5212 235.135 23.4642C235.01 23.3839 234.892 23.2677 234.782 23.1156C234.421 22.803 234.361 22.5751 234.603 22.432C234.843 22.2658 235.456 22.083 236.442 21.8837C237.325 21.6016 238.272 21.3712 239.284 21.1926C240.295 21.0139 241.334 20.8675 242.399 20.7533C243.117 20.6764 243.594 20.6486 243.83 20.6701C244.067 20.6916 244.326 20.8161 244.608 21.0435C245.039 21.3487 245.214 21.6695 245.133 22.0061C245.049 22.3196 244.736 22.4585 244.194 22.423C243.965 22.471 243.539 22.54 242.916 22.6302C242.293 22.7204 241.718 22.8172 241.191 22.9206C241.028 22.9379 240.741 22.9921 240.33 23.0831C239.915 23.1509 239.443 23.225 238.913 23.3052C238.383 23.3855 237.851 23.4541 237.319 23.5112ZM248.761 31.1738C248.308 31.1052 247.944 30.9803 247.667 30.7992C247.413 30.6156 247.256 30.3514 247.195 30.0065C247.211 29.9345 247.211 29.8291 247.196 29.6902C247.184 29.5744 247.215 29.4305 247.291 29.2584C247.291 29.2584 247.364 29.2857 247.51 29.3403C247.68 29.3924 247.945 29.3523 248.305 29.2199C248.771 29.1935 249.09 29.1124 249.263 28.9768C249.436 28.8411 249.675 28.5579 249.98 28.127C250.198 27.7523 250.444 27.316 250.718 26.8182C251.016 26.3178 251.207 25.9109 251.29 25.5974C251.633 25.303 251.875 25.0429 252.014 24.8171C252.152 24.5682 252.277 24.3205 252.392 24.074C252.379 23.9582 252.392 23.7461 252.429 23.4376C252.463 23.106 252.596 22.7053 252.827 22.2355C253.02 21.6293 253.211 21.1169 253.4 20.6985C253.587 20.2568 253.674 19.9781 253.662 19.8623C253.662 19.8623 253.688 19.7776 253.74 19.608C253.792 19.4385 253.794 19.2392 253.746 19.0101C253.878 18.9257 253.977 18.7628 254.045 18.5213C254.133 18.2542 254.153 17.9945 254.102 17.7422C254.095 17.6728 254.17 17.3953 254.329 16.9098C254.485 16.4012 254.549 15.9025 254.52 15.4137C254.685 14.5528 254.791 13.7919 254.838 13.1311C254.904 12.4447 254.931 11.7041 254.916 10.9093C254.901 10.1145 254.862 9.09975 254.8 7.865C254.735 6.81798 254.686 6.03851 254.655 5.52658C254.621 4.9915 254.566 4.5875 254.49 4.31458C254.437 4.03918 254.303 3.77247 254.088 3.51444C253.777 2.79825 253.54 2.44884 253.378 2.46621C253.309 2.47366 253.218 2.38972 253.105 2.21439C253.013 2.01343 252.997 1.74588 253.054 1.41176C253.021 1.32162 253.045 1.21369 253.125 1.08798C253.205 0.962267 253.351 0.899821 253.562 0.90064C253.724 0.883266 253.905 0.934122 254.105 1.05321C254.326 1.14665 254.476 1.23597 254.555 1.32115C254.638 1.21859 254.79 1.31948 255.01 1.62382C255.25 1.90252 255.522 2.36523 255.826 3.01196C256 3.32126 256.134 3.58797 256.228 3.81209C256.32 4.01306 256.392 4.25124 256.445 4.52664C256.495 4.77888 256.535 5.14939 256.564 5.63816C256.591 6.10378 256.625 6.75589 256.668 7.59449C256.755 8.40498 256.793 9.30271 256.781 10.2877C256.79 11.2471 256.775 12.1973 256.736 13.1385C256.693 14.0565 256.631 14.8947 256.548 15.6531C256.451 16.2725 256.309 17.0255 256.123 17.9121C255.934 18.7755 255.712 19.6543 255.457 20.5483C255.224 21.4398 254.994 22.2375 254.765 22.9413C254.559 23.6426 254.378 24.1422 254.223 24.4399C254.269 24.4349 254.214 24.5813 254.059 24.8791C253.927 25.1743 253.733 25.5581 253.48 26.0303C253.246 26.4769 253.003 26.9363 252.749 27.4086C252.498 27.904 252.285 28.3249 252.111 28.6715C251.816 29.195 251.467 29.654 251.064 30.0485C250.662 30.443 250.261 30.7437 249.861 30.9504C249.462 31.1572 249.095 31.2317 248.761 31.1738Z" fill="#072239"/>
</svg>
